<?xml version="1.0" standalone="no"?>
<!DOCTYPE svg PUBLIC "-//W3C//DTD SVG 20010904//EN"
 "http://www.w3.org/TR/2001/REC-SVG-20010904/DTD/svg10.dtd">
<svg version="1.0" xmlns="http://www.w3.org/2000/svg"
 width="738.000000pt" height="540.000000pt" viewBox="0 0 738.000000 540.000000"
 preserveAspectRatio="xMidYMid meet">

<g transform="translate(0.000000,540.000000) scale(0.100000,-0.100000)"
fill="#000000" stroke="none">
<path d="M3280 5334 c-99 -25 -131 -26 -445 -10 l-90 4 90 -13 c127 -19 398
-19 438 -1 99 45 409 46 522 2 34 -13 414 -10 505 4 36 5 -39 8 -220 7 -231
-1 -284 2 -335 16 -95 27 -342 23 -465 -9z"/>
<path d="M4418 5333 c29 -2 74 -2 100 0 26 2 2 3 -53 3 -55 0 -76 -1 -47 -3z"/>
<path d="M2621 5321 c-8 -5 -42 -12 -75 -16 -189 -19 -245 -28 -292 -50 -55
-26 -108 -41 -194 -56 -90 -15 -143 -31 -182 -56 -21 -13 -49 -23 -62 -23 -14
0 -28 -4 -31 -10 -3 -5 -21 -10 -38 -10 -18 0 -45 -7 -61 -15 -15 -8 -37 -15
-47 -15 -10 0 -21 -4 -24 -10 -3 -5 -35 -10 -71 -10 -59 0 -118 -13 -196 -42
-22 -8 -28 -17 -28 -42 -1 -37 -30 -76 -59 -76 -11 0 -23 -4 -26 -10 -3 -5
-15 -10 -25 -10 -11 0 -33 -13 -50 -30 -17 -16 -41 -30 -53 -30 -12 0 -29 -5
-37 -10 -12 -8 -11 -10 6 -10 27 0 94 27 94 39 0 8 55 34 98 46 37 10 72 56
72 92 0 28 4 33 24 33 14 0 27 4 30 9 3 5 34 12 68 15 91 9 191 27 203 36 6 5
44 16 85 25 80 19 135 40 145 55 3 6 19 10 34 10 15 0 31 4 37 9 9 10 97 28
179 38 22 3 46 10 53 16 33 27 152 60 242 67 100 9 291 37 299 45 9 9 -104 5
-118 -4z"/>
<path d="M4581 5325 c3 -2 50 -9 105 -15 100 -10 158 -24 204 -47 14 -7 35
-13 47 -13 35 0 114 -20 159 -41 47 -22 187 -58 224 -59 14 0 36 -7 50 -15 14
-8 35 -14 48 -15 12 0 30 -4 40 -9 9 -5 51 -17 92 -27 41 -9 77 -20 80 -24 3
-3 34 -14 70 -24 36 -9 76 -28 90 -40 25 -23 72 -42 160 -66 25 -7 60 -18 78
-26 18 -8 41 -14 52 -14 24 0 121 -25 146 -38 20 -10 66 -27 119 -43 46 -14
115 -84 131 -131 4 -10 10 -18 15 -18 5 0 9 -8 9 -19 0 -10 18 -34 40 -54 22
-19 40 -37 40 -40 0 -4 17 -23 39 -44 35 -34 91 -133 91 -161 0 -6 11 -19 25
-30 14 -11 25 -29 25 -41 0 -12 3 -21 8 -21 12 0 42 -60 42 -86 0 -14 11 -42
25 -62 14 -20 25 -42 25 -48 0 -7 3 -14 8 -16 11 -5 72 -103 72 -116 0 -7 7
-12 15 -12 8 0 15 -7 15 -15 0 -8 4 -23 10 -33 5 -9 16 -46 23 -82 l15 -65 1
47 c0 26 -3 49 -8 52 -5 3 -12 21 -15 41 -4 19 -17 47 -30 62 -13 15 -26 38
-30 51 -4 12 -12 22 -17 22 -5 0 -9 7 -9 15 0 8 -4 15 -8 15 -9 0 -72 119 -72
135 0 16 -73 160 -85 167 -7 4 -20 29 -30 55 -27 72 -57 115 -134 191 -38 38
-72 80 -76 93 -4 13 -17 36 -29 50 -11 15 -29 38 -39 52 -22 30 -92 65 -197
100 -75 24 -99 31 -220 62 -36 10 -74 21 -85 26 -11 5 -40 13 -64 18 -24 5
-55 20 -70 34 -35 33 -64 47 -95 47 -24 0 -64 17 -76 31 -3 4 -25 10 -50 13
-25 4 -56 11 -70 15 -14 5 -52 16 -85 26 -33 9 -67 21 -76 25 -9 5 -42 11 -75
15 -62 7 -141 30 -160 46 -7 5 -45 16 -85 25 -41 8 -99 23 -129 33 -94 32
-192 51 -259 51 -35 0 -62 -2 -60 -5z"/>
<path d="M374 5167 c-3 -8 -4 -45 -2 -82 3 -74 16 -93 59 -82 49 12 62 31 63
87 1 43 -3 55 -23 71 -27 22 -89 26 -97 6z m98 -42 c7 -16 8 -35 2 -57 -8 -27
-15 -34 -42 -36 l-32 -3 0 60 0 61 30 0 c23 0 33 -6 42 -25z"/>
<path d="M1000 5165 c0 -8 7 -15 15 -15 8 0 15 7 15 15 0 8 -7 15 -15 15 -8 0
-15 -7 -15 -15z"/>
<path d="M540 5110 c-11 -11 -20 -28 -20 -39 0 -26 38 -71 60 -71 24 0 60 46
60 76 0 50 -62 72 -100 34z m63 -4 c21 -16 22 -49 1 -70 -19 -20 -23 -20 -46
1 -22 20 -23 41 -1 65 19 21 22 22 46 4z"/>
<path d="M670 5062 c0 -78 23 -83 28 -6 6 85 52 79 52 -8 0 -30 4 -47 10 -43
6 3 10 26 10 49 0 48 18 74 38 54 7 -7 12 -34 12 -60 0 -26 5 -48 10 -48 15 0
12 107 -2 117 -7 4 -46 8 -85 8 l-73 0 0 -63z"/>
<path d="M887 5124 c-14 -14 -7 -26 8 -14 8 7 22 10 30 6 25 -9 17 -33 -14
-39 -33 -7 -49 -40 -31 -62 15 -18 47 -19 53 -2 4 9 8 8 16 -3 9 -11 11 1 9
50 -3 64 -3 65 -33 68 -17 2 -34 0 -38 -4z m53 -74 c0 -24 -26 -38 -42 -22 -8
8 -8 15 2 27 18 21 40 19 40 -5z"/>
<path d="M1000 5065 c0 -49 3 -66 13 -62 8 2 12 24 12 62 0 38 -4 60 -12 63
-10 3 -13 -14 -13 -63z"/>
<path d="M1060 5063 c0 -35 4 -63 10 -63 6 0 10 21 10 48 0 37 4 50 21 61 28
17 39 2 39 -56 0 -23 5 -45 10 -48 6 -4 10 17 10 54 0 34 -3 62 -7 62 -5 1
-27 3 -50 3 l-43 2 0 -63z"/>
<path d="M1900 5114 c1 -14 29 -48 35 -42 3 2 -4 15 -15 28 -11 13 -20 19 -20
14z"/>
<path d="M4077 5106 c-14 -11 -17 -25 -15 -58 3 -42 4 -43 41 -46 20 -2 37 1
37 6 0 5 -11 7 -25 4 -20 -3 -27 1 -35 23 -13 35 3 65 35 65 14 0 25 5 25 10
0 15 -42 12 -63 -4z"/>
<path d="M4497 5114 c-9 -10 -9 -114 1 -114 4 0 5 23 3 51 l-3 50 33 -3 c30
-3 34 -7 37 -36 2 -23 -2 -38 -15 -48 -17 -14 -17 -15 1 -12 28 4 41 50 24 85
-9 20 -22 29 -43 31 -17 2 -34 0 -38 -4z"/>
<path d="M4970 5110 c0 -5 5 -10 10 -10 6 0 10 5 10 10 0 6 -4 10 -10 10 -5 0
-10 -4 -10 -10z"/>
<path d="M4171 5066 c-18 -21 -6 -66 17 -66 15 1 15 2 -3 16 -15 11 -17 18 -9
32 6 9 18 18 27 20 20 4 32 -35 17 -53 -10 -12 -9 -15 4 -15 14 0 17 8 14 38
-3 31 -7 37 -29 40 -14 2 -31 -4 -38 -12z"/>
<path d="M4270 5040 c0 -22 5 -40 10 -40 6 0 10 15 10 34 0 24 5 36 18 39 10
3 6 5 -10 6 -26 1 -28 -2 -28 -39z"/>
<path d="M4342 5068 c-15 -15 -16 -40 0 -56 17 -17 33 -15 19 2 -10 12 -7 15
16 18 20 2 28 9 28 23 0 24 -43 33 -63 13z m58 -8 c0 -5 -11 -10 -25 -10 -14
0 -25 5 -25 10 0 6 11 10 25 10 14 0 25 -4 25 -10z"/>
<path d="M4616 5065 c-19 -20 -20 -26 -3 -49 9 -12 23 -17 42 -14 27 3 30 7
30 38 0 30 -3 35 -26 38 -15 2 -34 -4 -43 -13z m59 -25 c0 -18 -6 -26 -22 -28
-20 -3 -23 1 -23 28 0 27 3 31 23 28 16 -2 22 -10 22 -28z"/>
<path d="M4718 5038 c-2 -21 0 -38 4 -38 5 0 8 10 8 23 1 57 49 63 51 5 l2
-33 6 35 c9 50 41 55 41 6 0 -20 5 -36 10 -36 11 0 14 69 3 71 -5 1 -33 3 -65
4 l-56 2 -4 -39z"/>
<path d="M4898 5073 c27 -5 30 -23 3 -23 -17 0 -31 -18 -31 -41 0 -5 8 -9 18
-8 10 0 12 3 4 6 -16 6 -6 23 15 23 9 0 13 -6 9 -15 -3 -9 0 -15 9 -15 11 0
15 11 15 40 0 39 -1 40 -32 39 -24 -1 -27 -3 -10 -6z"/>
<path d="M4970 5040 c0 -22 5 -40 10 -40 6 0 10 18 10 40 0 22 -4 40 -10 40
-5 0 -10 -18 -10 -40z"/>
<path d="M5020 5040 c0 -22 5 -40 10 -40 6 0 10 16 10 36 0 49 32 44 41 -6 l6
-35 2 43 c1 42 1 42 -34 42 -34 0 -35 -1 -35 -40z"/>
<path d="M1960 5023 c0 -4 5 -15 10 -23 8 -13 10 -13 10 2 0 9 -4 20 -10 23
-5 3 -10 3 -10 -2z"/>
<path d="M2001 4935 c1 -19 18 -51 18 -35 0 8 -4 22 -9 30 -5 8 -9 11 -9 5z"/>
<path d="M3393 4915 c-15 -13 -22 -25 -15 -25 6 0 12 4 12 10 0 5 12 16 28 24
15 8 22 15 15 16 -7 0 -25 -11 -40 -25z"/>
<path d="M3528 4933 c7 -3 16 -2 19 1 4 3 -2 6 -13 5 -11 0 -14 -3 -6 -6z"/>
<path d="M3713 4923 c54 -2 139 -2 190 0 51 1 7 3 -98 3 -104 0 -146 -2 -92
-3z"/>
<path d="M4043 4913 c9 -2 25 -2 35 0 9 3 1 5 -18 5 -19 0 -27 -2 -17 -5z"/>
<path d="M4110 4900 c0 -5 15 -10 33 -9 27 0 29 2 12 9 -28 12 -45 12 -45 0z"/>
<path d="M3348 4870 c-25 -15 -64 -72 -44 -64 9 3 16 11 16 16 0 6 12 21 28
34 28 25 29 30 0 14z"/>
<path d="M4223 4873 c9 -2 25 -2 35 0 9 3 1 5 -18 5 -19 0 -27 -2 -17 -5z"/>
<path d="M2030 4858 c0 -8 9 -23 19 -32 19 -17 19 -17 14 3 -7 27 -33 50 -33
29z"/>
<path d="M4304 4855 c36 -19 47 -19 22 0 -11 8 -27 15 -35 15 -9 0 -3 -7 13
-15z"/>
<path d="M4370 4831 c0 -5 9 -11 21 -14 16 -4 18 -3 8 9 -13 16 -29 19 -29 5z"/>
<path d="M2080 4803 c0 -5 9 -18 20 -28 11 -10 20 -14 20 -8 0 5 -9 18 -20 28
-11 10 -20 14 -20 8z"/>
<path d="M4420 4801 c0 -5 7 -12 16 -15 14 -5 15 -4 4 9 -14 17 -20 19 -20 6z"/>
<path d="M1006 4775 c-3 -8 -14 -15 -25 -15 -10 0 -43 -16 -72 -36 -60 -41
-66 -46 -126 -104 -24 -22 -45 -40 -48 -40 -6 0 -85 -78 -85 -84 0 -2 -18 -23
-40 -46 -22 -23 -40 -49 -40 -58 0 -9 -7 -30 -15 -46 -8 -15 -15 -40 -15 -54
0 -15 -11 -49 -24 -77 -13 -27 -32 -86 -41 -130 -9 -44 -20 -88 -26 -97 -5
-10 -9 -25 -9 -34 0 -8 -11 -30 -25 -48 -14 -18 -25 -38 -25 -43 0 -6 -7 -16
-15 -23 -8 -7 -15 -19 -15 -26 0 -8 -16 -38 -35 -68 -19 -30 -35 -62 -35 -71
0 -8 -4 -15 -10 -15 -5 0 -14 -18 -20 -40 -6 -22 -15 -40 -20 -40 -6 0 -10 -8
-10 -17 0 -9 -4 -30 -9 -47 -26 -88 -41 -145 -46 -181 -16 -100 -23 -127 -33
-137 -7 -7 -12 -18 -12 -26 0 -8 -8 -26 -19 -40 -18 -25 -38 -89 -62 -192 -16
-66 -17 -828 -2 -905 29 -148 44 -205 68 -275 15 -41 32 -96 38 -122 6 -27 15
-48 19 -48 4 0 8 -9 8 -19 0 -11 4 -22 9 -26 14 -8 41 -65 41 -85 0 -9 14 -36
30 -58 17 -23 30 -48 30 -55 0 -8 11 -26 25 -41 14 -15 25 -29 25 -32 0 -2 25
-30 56 -62 30 -31 64 -73 74 -92 49 -97 65 -119 127 -188 38 -41 71 -83 76
-94 13 -36 138 -148 164 -148 7 0 13 -4 13 -10 0 -5 7 -10 15 -10 8 0 15 -4
15 -8 0 -5 11 -14 24 -20 14 -6 42 -26 63 -45 21 -19 62 -42 91 -52 28 -11 52
-23 52 -27 0 -4 8 -8 18 -8 10 0 22 -4 28 -9 5 -4 34 -16 64 -26 52 -17 97
-36 130 -54 51 -28 84 -40 160 -55 47 -10 101 -22 121 -27 20 -5 62 -9 92 -9
31 0 73 -7 94 -16 43 -19 58 -24 129 -47 29 -10 59 -17 68 -17 9 0 16 -3 16
-8 0 -10 77 -31 155 -42 90 -13 129 -22 140 -30 6 -5 35 -13 65 -18 30 -6 75
-18 100 -27 52 -19 63 -21 190 -37 118 -15 329 -15 480 1 73 8 219 11 400 8
275 -3 287 -4 340 -28 54 -23 60 -24 340 -23 176 1 300 5 325 12 34 10 27 10
-50 6 -134 -9 -504 -8 -550 1 -22 4 -45 11 -51 16 -7 6 -54 16 -105 25 -81 13
-135 13 -428 2 -403 -16 -741 -14 -774 4 -12 6 -40 15 -62 19 -22 3 -105 23
-185 43 -80 19 -172 41 -205 47 -33 6 -67 15 -76 19 -9 5 -33 12 -53 15 -20 4
-39 11 -42 16 -3 5 -16 9 -29 9 -13 0 -26 4 -29 9 -3 5 -23 12 -43 16 -21 4
-42 10 -48 15 -14 11 -99 28 -175 35 -88 8 -183 26 -194 36 -6 5 -17 9 -25 9
-8 0 -44 14 -80 31 -101 47 -122 56 -178 74 -29 9 -53 21 -53 26 0 5 -9 9 -19
9 -11 0 -23 5 -26 10 -3 6 -18 10 -31 10 -15 0 -38 13 -57 31 -17 17 -67 54
-111 82 -45 27 -82 54 -84 58 -2 5 -7 9 -12 9 -12 0 -82 71 -105 106 -18 29
-73 95 -132 160 -13 14 -26 36 -29 49 -3 14 -9 25 -13 25 -4 0 -15 17 -24 38
-10 20 -44 65 -77 100 -32 35 -76 91 -97 125 -20 34 -39 64 -42 67 -13 11 -29
47 -36 80 -4 19 -18 51 -31 70 -13 19 -24 42 -24 52 0 9 -4 20 -10 23 -5 3
-10 18 -10 32 0 13 -6 37 -14 51 -8 15 -20 47 -26 72 -7 25 -18 63 -25 85 -7
22 -16 69 -20 105 -4 36 -12 71 -18 79 -14 16 -12 847 1 865 5 6 14 38 21 71
11 50 51 149 92 227 5 10 9 32 9 50 0 18 10 69 21 113 11 44 25 99 30 123 5
24 18 56 29 72 11 15 20 33 20 38 0 15 32 84 55 117 12 17 36 59 54 95 18 36
44 80 57 99 13 19 24 48 24 64 0 17 4 44 9 61 6 17 18 58 27 91 10 33 20 67
24 75 19 38 29 69 39 120 9 40 23 68 54 104 70 83 223 225 281 261 17 11 33
23 34 27 2 5 11 8 20 8 10 0 35 11 57 25 32 19 36 24 19 25 -12 0 -24 -7 -28
-15z"/>
<path d="M3246 4775 c-11 -8 -15 -15 -10 -15 6 0 19 7 30 15 10 8 15 14 9 14
-5 0 -19 -6 -29 -14z"/>
<path d="M6212 4768 c-7 -7 -12 -16 -12 -20 0 -15 15 -8 28 12 13 22 3 27 -16
8z"/>
<path d="M4459 4756 c7 -9 18 -16 24 -16 6 0 19 -7 29 -17 10 -9 18 -11 18 -5
0 6 -19 21 -42 33 -33 17 -40 18 -29 5z"/>
<path d="M3202 4748 c-7 -7 -11 -28 -10 -47 l1 -36 4 35 c3 19 9 41 15 47 13
16 6 17 -10 1z"/>
<path d="M2140 4724 c0 -3 7 -12 15 -20 16 -17 18 -14 9 10 -6 15 -24 23 -24
10z"/>
<path d="M4540 4703 c0 -9 49 -57 105 -103 22 -17 20 -15 -5 9 -19 18 -50 49
-67 68 -18 19 -33 31 -33 26z"/>
<path d="M6178 4694 c-5 -4 -8 -19 -8 -33 1 -23 2 -24 11 -8 11 19 9 53 -3 41z"/>
<path d="M3181 4648 c-1 -9 -6 -18 -12 -20 -7 -2 -10 -11 -7 -18 3 -11 8 -9
17 8 7 13 10 28 7 35 -2 7 -5 5 -5 -5z"/>
<path d="M2190 4643 c1 -10 26 -43 33 -43 3 0 0 11 -6 25 -11 23 -27 34 -27
18z"/>
<path d="M6132 4589 c-7 -12 -11 -24 -7 -27 7 -8 25 17 25 36 0 17 -3 15 -18
-9z"/>
<path d="M3145 4557 c-4 -15 -13 -31 -21 -38 -16 -14 -19 -33 -3 -23 14 8 42
74 35 81 -3 3 -8 -6 -11 -20z"/>
<path d="M3482 4568 c-12 -12 -17 -124 -6 -152 8 -21 67 -21 88 0 18 17 21 59
6 69 -5 3 -7 19 -3 36 4 22 1 33 -13 44 -23 18 -56 19 -72 3z m66 -35 c3 -19
-1 -23 -22 -23 -21 0 -26 5 -26 26 0 21 4 25 23 22 14 -2 23 -11 25 -25z m10
-80 c3 -20 -1 -23 -27 -23 -27 0 -31 4 -31 26 0 22 4 25 28 22 19 -2 28 -9 30
-25z"/>
<path d="M4110 4551 c0 -25 -3 -28 -27 -23 -32 6 -53 -18 -53 -61 0 -56 37
-86 68 -55 9 9 12 9 12 0 0 -7 5 -12 10 -12 6 0 10 37 10 90 0 53 -4 90 -10
90 -5 0 -10 -13 -10 -29z m-2 -76 c3 -19 -2 -33 -13 -41 -26 -19 -45 -6 -45
30 0 39 7 48 35 44 14 -2 21 -12 23 -33z"/>
<path d="M4380 4551 c0 -25 -3 -28 -25 -23 -56 10 -87 -66 -45 -108 22 -22 56
-26 63 -7 4 10 6 10 6 0 1 -7 6 -13 11 -13 6 0 10 37 10 90 0 53 -4 90 -10 90
-5 0 -10 -13 -10 -29z m-2 -76 c3 -19 -2 -33 -13 -41 -28 -20 -45 -6 -45 38 0
37 2 39 28 36 22 -2 28 -9 30 -33z"/>
<path d="M2240 4552 c0 -10 22 -32 32 -32 5 0 3 9 -4 20 -13 20 -28 27 -28 12z"/>
<path d="M4680 4551 c0 -5 5 -13 10 -16 6 -3 10 -2 10 4 0 5 -4 13 -10 16 -5
3 -10 2 -10 -4z"/>
<path d="M3632 4518 c-20 -26 -23 -57 -7 -88 20 -39 56 -40 85 -3 22 28 21 63
-2 90 -13 17 -63 17 -76 1z m68 -47 c0 -40 -16 -56 -45 -45 -39 15 -23 84 20
84 22 0 25 -4 25 -39z"/>
<path d="M3750 4482 c0 -67 43 -105 78 -70 9 9 12 9 12 0 0 -7 5 -12 10 -12 6
0 10 28 10 65 0 51 -3 65 -15 65 -11 0 -15 -12 -15 -49 0 -31 -5 -51 -12 -54
-28 -9 -38 6 -38 54 0 37 -4 49 -15 49 -11 0 -15 -12 -15 -48z"/>
<path d="M3895 4521 c-10 -9 -5 -110 5 -116 6 -4 10 8 10 30 0 46 15 75 40 75
17 0 20 -7 20 -49 0 -28 5 -53 11 -56 7 -5 9 14 7 57 l-3 63 -43 0 c-24 1 -45
-1 -47 -4z"/>
<path d="M4182 4518 c-17 -17 -15 -86 2 -104 19 -19 72 -18 80 1 4 12 0 15
-17 14 -41 -4 -57 1 -57 16 0 11 11 15 40 15 35 0 40 3 40 23 0 30 -18 47 -50
47 -14 0 -31 -5 -38 -12z m62 -23 c4 -11 -2 -15 -24 -15 -20 0 -30 5 -30 15 0
9 9 15 24 15 13 0 26 -7 30 -15z"/>
<path d="M6107 4503 c-11 -10 -8 -43 3 -43 6 0 10 11 10 25 0 26 -2 29 -13 18z"/>
<path d="M4730 4496 c0 -2 8 -10 18 -17 15 -13 16 -12 3 4 -13 16 -21 21 -21
13z"/>
<path d="M2315 4460 c10 -11 20 -18 23 -15 7 6 -18 35 -31 35 -5 0 -2 -9 8
-20z"/>
<path d="M4760 4440 c0 -5 5 -10 10 -10 6 0 10 5 10 10 0 6 -4 10 -10 10 -5 0
-10 -4 -10 -10z"/>
<path d="M6058 4410 c-11 -12 -13 -22 -7 -26 6 -3 17 2 24 12 27 36 13 46 -17
14z"/>
<path d="M2366 4396 c3 -9 11 -16 16 -16 13 0 5 23 -10 28 -7 2 -10 -2 -6 -12z"/>
<path d="M4785 4279 c0 -71 3 -129 8 -129 4 0 7 56 7 124 0 69 -3 127 -7 129
-5 3 -8 -53 -8 -124z"/>
<path d="M3116 4355 c7 -26 22 -9 -278 -316 -50 -51 -82 -77 -92 -73 -10 4
-13 0 -10 -13 3 -13 -34 -57 -131 -157 -74 -77 -135 -143 -135 -147 0 -3 6
-12 14 -18 12 -10 13 -9 9 8 -4 14 12 37 61 85 36 37 66 68 66 71 0 4 60 64
114 114 21 20 28 22 41 11 8 -7 19 -10 22 -6 4 4 1 11 -7 16 -23 14 -5 37 173
221 129 134 160 161 168 149 8 -12 9 -9 5 10 -3 14 -6 35 -6 48 0 12 -5 22
-10 22 -6 0 -8 -11 -4 -25z"/>
<path d="M5990 4360 c0 -5 -7 -10 -17 -10 -9 0 -14 -2 -11 -5 8 -9 58 6 58 16
0 5 -7 9 -15 9 -8 0 -15 -4 -15 -10z"/>
<path d="M2432 4320 c7 -11 16 -20 20 -20 5 0 3 9 -4 20 -7 11 -16 20 -20 20
-5 0 -3 -9 4 -20z"/>
<path d="M900 4321 c0 -4 11 -6 25 -3 14 2 25 6 25 8 0 2 -11 4 -25 4 -14 0
-25 -4 -25 -9z"/>
<path d="M1038 4323 c7 -3 16 -2 19 1 4 3 -2 6 -13 5 -11 0 -14 -3 -6 -6z"/>
<path d="M1085 4310 c28 -12 45 -12 45 0 0 6 -15 10 -32 9 -28 0 -30 -2 -13
-9z"/>
<path d="M5916 4294 c-9 -9 -14 -19 -11 -22 3 -3 13 2 22 11 9 9 14 19 11 22
-3 3 -13 -2 -22 -11z"/>
<path d="M887 4281 c-4 -17 -3 -21 5 -13 5 5 8 16 6 23 -3 8 -7 3 -11 -10z"/>
<path d="M1220 4293 c8 -4 21 -14 28 -25 7 -10 18 -18 24 -18 6 0 1 11 -12 25
-13 14 -31 25 -39 24 -14 0 -14 -1 -1 -6z"/>
<path d="M3145 4257 c7 -33 63 -137 75 -137 4 0 13 -13 20 -30 7 -16 16 -30
21 -30 10 0 -13 42 -42 75 -18 22 -47 73 -67 120 l-12 30 5 -28z"/>
<path d="M2480 4252 c0 -5 7 -15 15 -22 8 -7 15 -8 15 -2 0 5 -7 15 -15 22 -8
7 -15 8 -15 2z"/>
<path d="M3580 4247 c-33 -17 -46 -66 -31 -117 11 -39 13 -40 56 -40 31 0 45
4 45 13 0 9 -10 12 -32 9 -53 -8 -78 55 -42 107 13 18 23 22 45 17 31 -6 40 8
13 18 -21 8 -25 8 -54 -7z"/>
<path d="M860 4235 c-7 -9 -8 -15 -2 -15 5 0 12 7 16 15 3 8 4 15 2 15 -2 0
-9 -7 -16 -15z"/>
<path d="M1310 4240 c0 -8 50 -24 56 -18 2 2 -10 9 -26 15 -17 6 -30 8 -30 3z"/>
<path d="M3963 4231 c-3 -12 -10 -21 -17 -21 -8 0 -8 -3 1 -8 6 -4 13 -30 15
-57 3 -43 6 -50 26 -53 12 -2 22 1 22 7 0 6 -4 11 -10 11 -15 0 -12 87 3 93
10 4 10 6 0 6 -7 1 -13 7 -13 15 0 24 -21 30 -27 7z"/>
<path d="M4283 4224 c-6 -14 -7 -26 -2 -30 5 -3 9 -27 9 -55 0 -48 1 -49 30
-49 17 0 30 5 30 10 0 6 -9 10 -20 10 -17 0 -20 7 -20 44 0 38 3 45 23 49 l22
4 -22 2 c-13 0 -23 7 -23 15 0 25 -15 25 -27 0z"/>
<path d="M5850 4215 c-7 -8 -8 -15 -2 -15 5 0 15 7 22 15 7 8 8 15 2 15 -5 0
-15 -7 -22 -15z"/>
<path d="M1385 4210 c3 -5 11 -10 16 -10 6 0 7 5 4 10 -3 6 -11 10 -16 10 -6
0 -7 -4 -4 -10z"/>
<path d="M3709 4206 c-21 -10 -24 -19 -24 -61 l0 -50 44 0 c41 0 45 2 52 30
17 62 -22 106 -72 81z m50 -30 c17 -32 0 -66 -34 -66 -22 0 -25 4 -25 38 0 21
3 42 7 45 14 14 40 6 52 -17z"/>
<path d="M4073 4209 c-27 -10 -39 -52 -27 -88 8 -22 16 -27 52 -29 27 -2 42 1
42 9 0 7 -9 9 -22 6 -26 -7 -58 8 -58 28 0 11 12 15 40 15 35 0 40 3 40 23 0
29 -35 48 -67 36z m45 -32 c3 -13 -3 -17 -27 -17 -33 0 -39 8 -19 28 17 17 42
11 46 -11z"/>
<path d="M841 4172 c0 -24 -6 -52 -11 -63 -7 -12 -7 -19 -1 -19 13 0 24 58 18
96 -3 22 -4 18 -6 -14z"/>
<path d="M3820 4148 c0 -32 4 -58 10 -58 6 0 10 18 10 41 0 24 7 47 16 57 15
15 18 14 30 -3 8 -10 14 -36 14 -57 0 -21 5 -38 10 -38 13 0 13 61 0 94 -8 21
-15 25 -50 23 l-40 -1 0 -58z"/>
<path d="M4170 4200 c0 -6 6 -19 12 -30 10 -16 9 -25 -5 -50 -15 -24 -16 -30
-4 -30 8 0 17 9 20 20 6 23 27 27 27 6 0 -16 18 -31 27 -23 3 3 -1 19 -9 35
-13 24 -13 32 -1 47 17 25 17 36 -2 29 -8 -4 -15 -12 -15 -20 0 -21 -18 -17
-25 6 -7 21 -25 28 -25 10z"/>
<path d="M1430 4185 c7 -8 17 -15 22 -15 5 0 3 7 -6 15 -8 8 -18 15 -22 15 -3
0 -1 -7 6 -15z"/>
<path d="M2542 4155 c6 -13 15 -22 19 -19 5 2 1 14 -9 24 -22 26 -24 25 -10
-5z"/>
<path d="M1475 4160 c3 -5 8 -10 11 -10 2 0 4 5 4 10 0 6 -5 10 -11 10 -5 0
-7 -4 -4 -10z"/>
<path d="M5791 4152 c-7 -13 -11 -28 -8 -35 2 -7 9 -2 16 11 7 13 11 28 8 35
-2 7 -9 2 -16 -11z"/>
<path d="M1524 4136 c11 -9 27 -16 35 -15 14 0 14 1 1 6 -8 3 -24 10 -35 15
-20 9 -20 9 -1 -6z"/>
<path d="M1598 4113 c12 -2 22 -9 22 -14 0 -5 12 -9 28 -8 l27 1 -30 13 c-16
8 -39 14 -50 13 -17 -1 -17 -1 3 -5z"/>
<path d="M4767 4104 c-4 -4 -7 -14 -7 -23 0 -11 3 -12 11 -4 6 6 10 16 7 23
-2 6 -7 8 -11 4z"/>
<path d="M2601 4084 c6 -8 18 -14 26 -14 20 0 8 16 -17 23 -17 4 -19 3 -9 -9z"/>
<path d="M1695 4080 c3 -5 11 -10 16 -10 6 0 7 5 4 10 -3 6 -11 10 -16 10 -6
0 -7 -4 -4 -10z"/>
<path d="M1745 4063 c11 -2 30 -9 42 -15 13 -6 26 -8 29 -5 9 9 -42 27 -69 26
-20 -1 -20 -2 -2 -6z"/>
<path d="M5756 4054 c-9 -24 -7 -28 9 -14 17 14 20 30 6 30 -5 0 -12 -7 -15
-16z"/>
<path d="M3305 4010 c59 -63 107 -110 113 -110 8 0 -100 113 -128 134 -14 11
-7 0 15 -24z"/>
<path d="M781 4009 c-6 -18 -9 -34 -7 -36 2 -2 9 10 15 28 6 18 9 34 7 36 -2
2 -9 -10 -15 -28z"/>
<path d="M1860 4030 c20 -13 33 -13 25 0 -3 6 -14 10 -23 10 -15 0 -15 -2 -2
-10z"/>
<path d="M2650 4033 c0 -7 32 -32 43 -33 17 0 5 18 -18 28 -14 6 -25 9 -25 5z"/>
<path d="M4740 4016 c-5 -15 -10 -35 -10 -44 1 -9 7 1 15 23 16 44 11 63 -5
21z"/>
<path d="M1935 4006 c22 -7 42 -12 44 -10 8 7 -4 11 -44 17 l-40 6 40 -13z"/>
<path d="M5697 3996 c-17 -13 -23 -36 -9 -36 8 0 35 40 30 45 -2 2 -11 -2 -21
-9z"/>
<path d="M2010 3981 c0 -9 30 -24 36 -18 2 1 -6 8 -16 15 -11 7 -20 8 -20 3z"/>
<path d="M2075 3950 c27 -12 43 -12 25 0 -8 5 -22 9 -30 9 -10 0 -8 -3 5 -9z"/>
<path d="M4717 3944 c-4 -4 -7 -14 -7 -23 0 -11 3 -12 11 -4 6 6 10 16 7 23
-2 6 -7 8 -11 4z"/>
<path d="M2120 3935 c0 -2 10 -10 23 -16 20 -11 21 -11 8 4 -13 16 -31 23 -31
12z"/>
<path d="M5625 3910 c-10 -11 -14 -20 -9 -20 12 1 44 25 44 34 0 12 -17 6 -35
-14z"/>
<path d="M755 3900 c-3 -5 -1 -10 4 -10 6 0 11 5 11 10 0 6 -2 10 -4 10 -3 0
-8 -4 -11 -10z"/>
<path d="M2170 3903 c1 -11 50 -46 56 -40 3 3 -9 15 -25 27 -17 12 -31 18 -31
13z"/>
<path d="M2850 3881 c0 -9 24 -21 42 -21 6 0 6 6 -2 15 -14 16 -40 20 -40 6z"/>
<path d="M3447 3853 c30 -40 66 -74 72 -68 2 3 -10 15 -26 29 -16 13 -35 36
-42 50 -8 14 -18 26 -23 26 -5 0 4 -17 19 -37z"/>
<path d="M4682 3849 c-11 -24 -22 -55 -27 -69 -7 -24 -7 -24 9 -5 8 11 16 26
16 33 0 7 7 27 16 43 8 17 13 33 10 36 -3 3 -14 -14 -24 -38z"/>
<path d="M5543 3865 c-19 -21 -16 -24 12 -12 14 7 25 15 25 20 0 12 -24 7 -37
-8z"/>
<path d="M6056 3861 c101 -5 126 -9 143 -25 12 -11 21 -15 21 -10 0 5 -13 17
-29 27 -24 14 -51 17 -143 15 l-113 -2 121 -5z"/>
<path d="M726 3828 c-9 -43 -2 -45 11 -3 6 19 8 35 3 35 -4 0 -10 -14 -14 -32z"/>
<path d="M2246 3852 c5 -5 29 -24 54 -42 25 -19 55 -46 67 -60 13 -14 23 -20
23 -14 0 12 -59 74 -70 74 -4 0 -20 11 -36 25 -16 14 -33 25 -38 25 -6 0 -6
-3 0 -8z"/>
<path d="M5873 3848 c-22 -29 -24 -41 -3 -20 12 13 20 25 17 28 -2 2 -9 -1
-14 -8z"/>
<path d="M2930 3820 c6 -11 16 -20 22 -20 6 0 3 9 -7 20 -10 11 -20 20 -22 20
-2 0 1 -9 7 -20z"/>
<path d="M5476 3804 c-11 -7 -17 -17 -13 -20 3 -4 14 1 23 10 21 22 15 28 -10
10z"/>
<path d="M5798 3803 c-10 -2 -18 -8 -18 -13 0 -5 -9 -12 -21 -15 -11 -4 -18
-9 -15 -13 5 -5 96 37 96 45 0 4 -19 2 -42 -4z"/>
<path d="M6277 3753 c33 -32 66 -67 72 -78 6 -12 11 -14 11 -6 0 14 -122 141
-136 141 -5 0 19 -26 53 -57z"/>
<path d="M3020 3765 c7 -8 17 -15 22 -15 6 0 5 7 -2 15 -7 8 -17 15 -22 15 -6
0 -5 -7 2 -15z"/>
<path d="M3545 3770 c3 -5 11 -10 16 -10 6 0 35 -12 65 -26 31 -14 57 -24 60
-21 5 5 -122 67 -138 67 -5 0 -6 -4 -3 -10z"/>
<path d="M722 3735 c0 -16 2 -22 5 -12 2 9 2 23 0 30 -3 6 -5 -1 -5 -18z"/>
<path d="M5402 3743 c-17 -30 -15 -37 4 -19 8 9 14 22 11 29 -2 7 -8 4 -15
-10z"/>
<path d="M5685 3745 c-16 -8 -23 -14 -15 -14 8 0 26 6 40 14 32 18 15 18 -25
0z"/>
<path d="M1900 3706 c0 -34 -1 -35 -30 -29 -23 4 -34 1 -45 -13 -41 -54 17
-148 63 -102 9 9 12 9 12 -1 0 -7 5 -9 10 -6 6 3 10 44 10 90 0 46 -4 87 -10
90 -6 4 -10 -8 -10 -29z m-12 -58 c30 -30 -3 -87 -39 -68 -19 11 -24 35 -13
64 7 19 35 21 52 4z"/>
<path d="M2166 3733 c-3 -3 -6 -17 -6 -30 0 -19 -5 -23 -28 -23 -38 0 -52 -17
-52 -60 0 -47 24 -69 73 -67 l37 1 0 87 c0 81 -7 109 -24 92z m-6 -112 c0 -44
-20 -59 -45 -35 -17 17 -17 20 -9 52 4 15 14 22 30 22 21 0 24 -5 24 -39z"/>
<path d="M4636 3714 c-4 -14 -5 -28 -3 -31 3 -2 8 8 11 23 4 14 5 28 3 31 -3
2 -8 -8 -11 -23z"/>
<path d="M1260 3640 l0 -90 39 0 c30 0 44 6 55 22 20 29 20 43 -1 64 -13 13
-14 19 -5 22 18 6 15 43 -5 58 -10 7 -33 14 -50 14 l-33 0 0 -90z m68 58 c20
-20 14 -38 -13 -38 -20 0 -25 5 -25 25 0 27 18 33 38 13z m12 -93 c0 -20 -5
-25 -25 -25 -20 0 -25 5 -25 25 0 20 5 25 25 25 20 0 25 -5 25 -25z"/>
<path d="M2423 3705 c15 -14 33 -25 40 -25 7 0 0 8 -15 18 -16 9 -28 20 -28
24 0 5 -6 8 -12 8 -7 0 0 -12 15 -25z"/>
<path d="M3100 3710 c14 -10 26 -17 29 -15 6 7 -27 35 -41 35 -7 0 -2 -9 12
-20z"/>
<path d="M5630 3719 c0 -5 5 -7 10 -4 6 3 10 8 10 11 0 2 -4 4 -10 4 -5 0 -10
-5 -10 -11z"/>
<path d="M3700 3705 c0 -8 81 -44 98 -45 7 0 10 5 7 10 -3 6 -16 10 -29 10
-12 0 -31 7 -42 15 -20 15 -34 19 -34 10z"/>
<path d="M5586 3695 c-16 -12 -17 -15 -4 -15 8 0 21 7 28 15 16 19 1 19 -24 0z"/>
<path d="M7021 3654 c-1 -60 6 -83 49 -164 11 -19 19 -45 20 -57 0 -21 7 -39
52 -140 11 -23 22 -59 25 -80 3 -21 12 -47 20 -58 7 -11 18 -37 24 -58 5 -20
21 -53 34 -73 37 -54 45 -111 55 -369 5 -132 14 -274 19 -315 6 -41 10 -141
11 -222 0 -156 0 -155 -71 -290 -5 -10 -9 -24 -9 -32 0 -15 -35 -105 -76 -194
-13 -29 -24 -59 -24 -67 0 -8 -11 -35 -24 -60 -14 -25 -28 -71 -32 -102 -9
-72 -51 -134 -108 -159 -22 -10 -47 -25 -55 -32 -8 -8 -37 -24 -65 -37 -54
-25 -93 -61 -116 -110 -8 -16 -21 -36 -27 -43 -7 -7 -13 -20 -13 -28 0 -8 -4
-14 -10 -14 -8 0 -21 -24 -50 -95 -40 -94 -50 -115 -58 -115 -5 0 -15 -19 -23
-42 -7 -23 -30 -58 -51 -79 -21 -21 -38 -43 -38 -49 0 -16 -90 -102 -126 -120
-16 -8 -45 -27 -65 -42 -34 -26 -80 -41 -161 -53 -21 -3 -38 -10 -38 -15 0 -6
-25 -10 -56 -10 -61 0 -194 -27 -194 -40 0 -4 -21 -10 -47 -13 -27 -3 -73 -13
-103 -23 -30 -9 -73 -20 -95 -24 -22 -4 -56 -12 -75 -18 -19 -5 -84 -15 -145
-21 -459 -48 -533 -58 -561 -76 -11 -7 -60 -18 -109 -24 -48 -6 -90 -13 -93
-16 -3 -3 21 -5 54 -5 38 0 93 10 154 29 52 16 140 34 195 40 379 39 462 48
515 59 73 15 144 34 162 43 10 5 25 9 35 9 28 0 147 32 161 43 7 6 63 16 124
23 61 7 116 18 121 23 6 6 22 11 36 11 41 0 101 20 121 40 10 10 27 21 39 25
12 3 21 11 21 16 0 5 5 9 11 9 17 0 114 87 130 117 8 15 28 41 46 59 18 18 35
45 39 61 4 15 18 42 31 59 12 17 23 36 23 41 0 6 7 16 15 23 8 7 15 20 15 29
0 22 53 125 79 152 12 13 21 30 21 40 0 25 73 95 114 109 20 6 36 16 36 21 0
5 6 9 14 9 8 0 16 3 18 8 2 4 25 18 51 32 71 37 127 129 127 210 0 20 6 44 14
55 7 11 19 38 26 60 7 22 18 47 24 55 7 8 18 37 25 65 6 27 16 52 22 55 5 4
16 33 25 65 8 33 19 62 23 65 5 3 12 16 15 30 4 14 19 48 32 75 24 48 25 57
21 190 -3 77 -14 293 -26 480 l-21 340 -40 80 c-21 44 -62 145 -91 225 -28 80
-55 149 -60 155 -5 5 -9 20 -9 34 0 14 -13 52 -29 85 -16 34 -34 90 -39 126
l-9 65 -2 -61z"/>
<path d="M731 3673 c-1 -17 4 -35 9 -38 11 -7 11 9 0 45 -8 24 -8 24 -9 -7z"/>
<path d="M1414 3666 c-37 -42 -13 -116 37 -116 47 0 76 72 45 113 -15 20 -66
22 -82 3z m70 -22 c17 -44 -6 -77 -45 -67 -14 4 -19 15 -19 37 0 18 3 36 7 39
12 13 51 7 57 -9z"/>
<path d="M1540 3627 c0 -63 10 -76 63 -74 l37 1 0 63 c0 35 -4 63 -10 63 -5 0
-10 -20 -10 -45 0 -34 -5 -47 -20 -55 -24 -13 -28 -6 -32 54 -5 64 -28 58 -28
-7z"/>
<path d="M1673 3665 c-8 -23 2 -108 14 -112 8 -3 13 13 15 49 3 45 6 53 24 56
24 3 34 -19 34 -75 0 -18 5 -33 10 -33 15 0 12 106 -3 119 -18 14 -88 11 -94
-4z"/>
<path d="M1966 3658 c-34 -48 -6 -111 47 -106 17 2 32 9 35 17 3 9 -1 11 -16
6 -23 -7 -62 9 -62 25 0 6 15 10 33 10 51 0 64 13 43 44 -21 33 -59 34 -80 4z
m64 -13 c0 -10 -10 -15 -30 -15 -29 0 -38 9 -23 23 13 13 53 7 53 -8z"/>
<path d="M3164 3671 c8 -12 46 -21 46 -11 0 8 -24 20 -41 20 -6 0 -8 -4 -5 -9z"/>
<path d="M5331 3663 c-7 -8 -10 -17 -7 -20 9 -9 29 13 25 25 -2 6 -10 3 -18
-5z"/>
<path d="M3844 3645 c11 -8 27 -15 35 -15 9 0 3 7 -13 15 -36 19 -47 19 -22 0z"/>
<path d="M4612 3640 c-17 -27 -15 -35 4 -16 8 9 14 21 12 26 -2 6 -9 1 -16
-10z"/>
<path d="M5525 3622 c-28 -37 -46 -74 -41 -80 3 -2 11 8 18 24 7 16 21 38 30
48 15 17 24 37 16 36 -2 0 -12 -13 -23 -28z"/>
<path d="M6387 3619 c4 -13 8 -18 11 -10 2 7 -1 18 -6 23 -8 8 -9 4 -5 -13z"/>
<path d="M3240 3622 c0 -11 41 -45 47 -39 6 6 -28 47 -39 47 -5 0 -8 -3 -8 -8z"/>
<path d="M3923 3623 c9 -2 25 -2 35 0 9 3 1 5 -18 5 -19 0 -27 -2 -17 -5z"/>
<path d="M5265 3600 c-10 -11 -14 -20 -9 -20 12 1 44 25 44 34 0 12 -17 6 -35
-14z"/>
<path d="M3998 3603 c6 -2 18 -2 25 0 6 3 1 5 -13 5 -14 0 -19 -2 -12 -5z"/>
<path d="M750 3590 c0 -5 5 -10 10 -10 6 0 10 5 10 10 0 6 -4 10 -10 10 -5 0
-10 -4 -10 -10z"/>
<path d="M4083 3593 c9 -2 25 -2 35 0 9 3 1 5 -18 5 -19 0 -27 -2 -17 -5z"/>
<path d="M4570 3575 c-13 -14 -19 -25 -13 -25 6 0 18 11 27 25 9 14 15 25 13
25 -2 0 -14 -11 -27 -25z"/>
<path d="M4183 3580 c27 -5 54 -14 62 -20 8 -6 22 -10 32 -8 26 5 -73 38 -111
37 -23 -1 -19 -3 17 -9z"/>
<path d="M2520 3566 c0 -8 5 -18 10 -21 6 -3 10 3 10 14 0 12 -4 21 -10 21 -5
0 -10 -6 -10 -14z"/>
<path d="M6406 3560 c7 -27 34 -71 34 -55 -1 6 -10 26 -21 45 -15 26 -18 29
-13 10z"/>
<path d="M3320 3550 c0 -8 24 -20 41 -20 6 0 8 4 5 9 -8 12 -46 21 -46 11z"/>
<path d="M5194 3545 c-10 -8 -14 -14 -9 -15 15 0 40 18 34 24 -3 3 -14 -1 -25
-9z"/>
<path d="M780 3522 c6 -13 14 -21 18 -18 3 4 -2 14 -12 24 -18 16 -18 16 -6
-6z"/>
<path d="M2550 3510 c6 -11 13 -20 16 -20 2 0 0 9 -6 20 -6 11 -13 20 -16 20
-2 0 0 -9 6 -20z"/>
<path d="M5468 3498 c-3 -18 -2 -58 2 -88 7 -52 7 -50 9 33 1 90 -3 111 -11
55z"/>
<path d="M3410 3495 c7 -8 17 -15 22 -15 6 0 5 7 -2 15 -7 8 -17 15 -22 15 -6
0 -5 -7 2 -15z"/>
<path d="M6450 3493 c0 -7 11 -25 25 -40 13 -15 25 -23 25 -16 0 7 -11 25 -25
40 -13 15 -25 23 -25 16z"/>
<path d="M800 3477 c0 -13 89 -119 90 -106 0 4 -16 24 -35 45 -19 22 -35 44
-35 51 0 17 -20 27 -20 10z"/>
<path d="M2570 3475 c0 -3 4 -13 9 -23 5 -9 18 -39 30 -67 11 -27 20 -43 21
-35 0 8 -6 27 -14 42 -8 15 -17 40 -21 57 -4 17 -11 31 -16 31 -5 0 -9 -2 -9
-5z"/>
<path d="M5136 3464 c-9 -24 -7 -28 9 -14 17 14 20 30 6 30 -5 0 -12 -7 -15
-16z"/>
<path d="M3480 3435 c7 -8 16 -15 21 -15 5 0 6 7 3 15 -4 8 -13 15 -21 15 -13
0 -13 -3 -3 -15z"/>
<path d="M6513 3407 c9 -8 17 -19 17 -26 0 -6 4 -11 9 -11 5 0 13 -10 17 -22
3 -13 16 -36 28 -53 11 -16 27 -41 33 -55 l13 -25 -6 25 c-6 23 -25 57 -79
142 -11 17 -27 33 -35 35 -11 3 -11 1 3 -10z"/>
<path d="M1362 3403 c-17 -6 -42 -57 -42 -83 0 -12 7 -35 16 -51 14 -27 19
-30 56 -27 23 2 43 9 46 15 2 9 -5 11 -27 7 -62 -13 -95 57 -50 105 16 17 27
21 50 16 16 -4 29 -2 29 3 0 18 -47 28 -78 15z"/>
<path d="M5101 3396 c-16 -19 -11 -29 8 -17 7 5 12 14 9 21 -3 9 -8 7 -17 -4z"/>
<path d="M1750 3381 c0 -11 -8 -22 -17 -24 -17 -4 -17 -5 0 -6 14 -1 17 -11
17 -56 0 -52 1 -55 25 -55 27 0 34 15 10 24 -23 8 -20 83 3 89 16 4 16 5 0 6
-10 0 -18 7 -18 15 0 8 -4 18 -10 21 -5 3 -10 -3 -10 -14z"/>
<path d="M2063 3375 c-6 -14 -7 -25 -3 -25 5 0 10 -24 12 -52 3 -49 5 -53 31
-56 31 -4 37 13 7 21 -16 4 -20 14 -20 46 0 36 3 41 23 42 l22 0 -22 9 c-13 5
-23 16 -23 25 0 23 -14 18 -27 -10z"/>
<path d="M3550 3392 c0 -14 28 -47 35 -41 2 3 -5 15 -15 29 -11 14 -20 19 -20
12z"/>
<path d="M900 3365 c0 -3 7 -13 15 -21 8 -8 21 -24 29 -36 8 -11 18 -19 23
-17 5 2 -8 21 -29 43 -21 21 -38 35 -38 31z"/>
<path d="M1484 3352 c-17 -11 -26 -49 -19 -82 6 -27 10 -30 45 -30 29 0 42 5
50 19 14 26 13 74 -2 89 -13 13 -57 16 -74 4z m56 -23 c24 -44 -10 -91 -45
-65 -25 18 -13 86 15 86 11 0 24 -9 30 -21z"/>
<path d="M1600 3298 c0 -32 4 -58 10 -58 6 0 10 17 10 38 0 46 34 87 50 62 6
-8 10 -34 10 -57 0 -24 5 -43 10 -43 7 0 10 22 8 58 l-3 57 -47 1 -48 1 0 -59z"/>
<path d="M1842 3348 c-13 -13 -16 -66 -6 -92 7 -18 79 -23 89 -5 4 6 -2 9 -17
8 -41 -4 -58 1 -58 15 0 10 13 16 37 18 28 2 39 8 42 22 6 36 -59 62 -87 34z
m58 -18 c0 -15 -7 -20 -25 -20 -24 0 -34 18 -18 33 15 15 43 7 43 -13z"/>
<path d="M1957 3343 c3 -10 10 -23 15 -30 6 -8 4 -20 -6 -35 -18 -25 -20 -38
-7 -38 5 0 13 9 16 20 3 11 11 20 17 20 5 0 12 -9 15 -20 3 -11 12 -20 19 -20
12 0 12 5 -2 31 -13 26 -14 36 -3 55 7 13 10 27 6 30 -3 3 -10 -4 -17 -15 -14
-26 -26 -27 -33 -1 -3 11 -10 20 -16 20 -6 0 -8 -8 -4 -17z"/>
<path d="M3629 3329 c13 -11 26 -17 29 -14 7 6 -29 34 -43 34 -5 0 1 -9 14
-20z"/>
<path d="M5486 3315 c7 -54 7 -57 -1 -78 -9 -21 11 -20 33 1 12 11 12 15 -2
25 -8 7 -20 30 -26 52 l-10 40 6 -40z"/>
<path d="M5032 3320 c-18 -29 -15 -36 8 -15 20 18 26 35 12 35 -4 0 -13 -9
-20 -20z"/>
<path d="M2643 3285 c0 -22 2 -30 4 -17 2 12 2 30 0 40 -3 9 -5 -1 -4 -23z"/>
<path d="M3714 3305 c22 -17 36 -19 36 -6 0 10 -24 21 -43 21 -7 0 -3 -7 7
-15z"/>
<path d="M5538 3296 c-19 -17 -23 -26 -14 -29 7 -3 23 8 35 24 26 35 16 37
-21 5z"/>
<path d="M3810 3280 c0 -5 9 -10 21 -10 11 0 17 5 14 10 -3 6 -13 10 -21 10
-8 0 -14 -4 -14 -10z"/>
<path d="M4659 3273 c-12 -15 -12 -16 4 -10 10 4 23 7 28 7 6 0 7 5 4 10 -9
15 -21 12 -36 -7z"/>
<path d="M4740 3280 c0 -5 9 -10 19 -10 11 0 23 5 26 10 4 6 -5 10 -19 10 -14
0 -26 -4 -26 -10z"/>
<path d="M4848 3283 c6 -2 18 -2 25 0 6 3 1 5 -13 5 -14 0 -19 -2 -12 -5z"/>
<path d="M4953 3283 c9 -2 23 -2 30 0 6 3 -1 5 -18 5 -16 0 -22 -2 -12 -5z"/>
<path d="M992 3260 c7 -11 17 -20 22 -20 5 0 1 9 -9 20 -10 11 -20 20 -22 20
-2 0 2 -9 9 -20z"/>
<path d="M3890 3251 c0 -10 30 -24 37 -17 3 2 -5 9 -16 16 -12 6 -21 7 -21 1z"/>
<path d="M3700 3244 c0 -5 7 -18 15 -28 12 -16 15 -17 15 -4 0 8 -7 21 -15 28
-8 7 -15 9 -15 4z"/>
<path d="M1030 3237 c0 -9 61 -70 66 -65 2 2 -12 20 -31 38 -19 19 -35 31 -35
27z"/>
<path d="M2652 3215 c0 -16 2 -22 5 -12 2 9 2 23 0 30 -3 6 -5 -1 -5 -18z"/>
<path d="M4090 3230 c-12 -8 -9 -10 13 -10 16 0 26 4 22 10 -8 12 -16 12 -35
0z"/>
<path d="M4465 3230 c-4 -6 7 -10 24 -10 17 0 31 5 31 10 0 6 -11 10 -24 10
-14 0 -28 -4 -31 -10z"/>
<path d="M4560 3230 c0 -5 9 -10 19 -10 11 0 23 5 26 10 4 6 -5 10 -19 10 -14
0 -26 -4 -26 -10z"/>
<path d="M3990 3219 c0 -5 11 -9 25 -9 14 0 25 2 25 4 0 2 -11 6 -25 8 -14 3
-25 1 -25 -3z"/>
<path d="M4180 3220 c0 -5 5 -10 10 -10 6 0 10 -10 10 -22 0 -27 5 -21 14 15
5 23 3 27 -14 27 -11 0 -20 -4 -20 -10z"/>
<path d="M4274 3221 c3 -5 15 -7 26 -4 28 7 25 13 -6 13 -14 0 -23 -4 -20 -9z"/>
<path d="M4383 3223 c9 -2 23 -2 30 0 6 3 -1 5 -18 5 -16 0 -22 -2 -12 -5z"/>
<path d="M5652 3211 c-9 -5 -12 -30 -10 -87 3 -78 3 -79 31 -82 51 -6 103 51
67 73 -5 3 -10 24 -10 45 0 29 -5 42 -19 50 -23 12 -41 13 -59 1z m58 -46 c0
-20 -5 -25 -25 -25 -20 0 -25 5 -25 25 0 20 5 25 25 25 20 0 25 -5 25 -25z
m10 -60 c17 -20 -3 -45 -36 -45 -20 0 -24 5 -24 30 0 25 4 30 24 30 13 0 29
-7 36 -15z"/>
<path d="M6270 3191 c0 -24 -4 -28 -22 -24 -38 6 -53 -12 -53 -62 0 -53 13
-65 65 -61 l35 4 3 86 c2 72 0 86 -13 86 -10 0 -15 -10 -15 -29z m-5 -86 c0
-34 -3 -40 -22 -43 -21 -3 -23 1 -23 36 0 43 7 54 30 50 10 -2 15 -15 15 -43z"/>
<path d="M6550 3190 c0 -28 -2 -29 -30 -23 -37 7 -59 -16 -60 -63 0 -47 59
-88 73 -51 4 9 8 8 16 -3 8 -11 11 10 11 78 0 50 -2 92 -5 92 -3 0 -5 -13 -5
-30z m-7 -62 c14 -22 -9 -68 -34 -68 -19 0 -29 19 -29 55 0 37 43 46 63 13z"/>
<path d="M5462 3198 c-7 -7 -12 -19 -12 -27 0 -11 5 -8 16 7 18 25 15 39 -4
20z"/>
<path d="M6630 3207 c0 -4 5 -13 10 -20 6 -7 17 -21 25 -32 8 -11 14 -15 15
-10 0 12 -49 74 -50 62z"/>
<path d="M2660 3166 c0 -8 5 -18 10 -21 6 -3 10 1 10 9 0 8 -4 18 -10 21 -5 3
-10 -1 -10 -9z"/>
<path d="M1110 3161 c0 -5 7 -12 16 -15 14 -5 15 -4 4 9 -14 17 -20 19 -20 6z"/>
<path d="M5792 3158 c-7 -7 -12 -31 -12 -53 0 -34 4 -44 26 -55 57 -31 113 51
68 101 -19 21 -64 25 -82 7z m68 -23 c7 -9 9 -26 5 -45 -5 -23 -12 -30 -30
-30 -27 0 -40 28 -31 66 7 27 37 32 56 9z"/>
<path d="M5920 3119 c0 -62 19 -87 54 -71 17 7 27 7 35 -1 8 -8 11 6 11 56 0
38 -4 67 -10 67 -5 0 -10 -17 -10 -38 0 -46 -20 -78 -44 -69 -12 5 -16 19 -16
57 0 27 -4 50 -10 50 -5 0 -10 -23 -10 -51z"/>
<path d="M6060 3109 c0 -32 5 -61 10 -64 6 -4 10 13 10 43 0 35 4 52 15 56 32
12 45 -5 45 -56 0 -30 4 -47 10 -43 13 8 13 81 0 106 -8 14 -20 18 -50 17
l-40 -1 0 -58z"/>
<path d="M6337 3140 c-22 -36 -15 -64 19 -86 17 -11 32 -14 51 -8 27 7 27 8
-12 13 -27 4 -41 12 -43 24 -3 14 4 17 37 17 36 0 41 3 41 23 0 54 -65 66 -93
17z m68 -10 c0 -9 -11 -16 -27 -18 -20 -2 -28 1 -28 12 0 8 6 17 13 19 21 9
42 2 42 -13z"/>
<path d="M4220 3151 c0 -6 5 -13 10 -16 6 -3 10 1 10 9 0 9 -4 16 -10 16 -5 0
-10 -4 -10 -9z"/>
<path d="M1155 3129 c7 -10 31 -21 75 -33 14 -4 3 5 -25 18 -57 29 -59 30 -50
15z"/>
<path d="M5430 3118 c-12 -22 -12 -22 6 -6 10 10 15 20 12 24 -4 3 -12 -5 -18
-18z"/>
<path d="M6681 3114 c0 -11 3 -14 6 -6 3 7 2 16 -1 19 -3 4 -6 -2 -5 -13z"/>
<path d="M2680 3108 c0 -7 5 -20 10 -28 8 -12 10 -11 10 7 0 12 -4 25 -10 28
-5 3 -10 0 -10 -7z"/>
<path d="M1270 3075 c7 -8 17 -15 22 -15 6 0 5 7 -2 15 -7 8 -17 15 -22 15 -6
0 -5 -7 2 -15z"/>
<path d="M6691 2958 c1 -67 -1 -136 -4 -153 -3 -16 -4 -21 -1 -10 3 11 10 24
15 30 13 13 12 242 -1 250 -7 5 -10 -33 -9 -117z"/>
<path d="M4252 3050 c7 -10 14 -18 15 -16 6 6 -9 36 -18 36 -5 0 -4 -9 3 -20z"/>
<path d="M1343 3036 c20 -14 47 -30 59 -37 l23 -11 -21 20 c-21 20 -76 52 -90
52 -4 0 9 -11 29 -24z"/>
<path d="M3752 3040 c0 -14 2 -19 5 -12 2 6 2 18 0 25 -3 6 -5 1 -5 -13z"/>
<path d="M2705 3021 c3 -18 5 -53 5 -77 0 -24 5 -44 10 -44 11 0 4 84 -11 129
-8 23 -8 22 -4 -8z"/>
<path d="M5431 3033 c-1 -22 22 -67 54 -103 16 -20 41 -50 54 -68 13 -18 28
-32 33 -32 8 0 -79 109 -103 130 -3 3 -13 23 -22 45 -9 22 -16 35 -16 28z"/>
<path d="M4276 3007 c3 -10 9 -15 12 -12 3 3 0 11 -7 18 -10 9 -11 8 -5 -6z"/>
<path d="M1447 2973 c42 -35 78 -58 95 -60 27 -4 22 4 -12 21 -17 8 -48 25
-68 36 -28 17 -32 17 -15 3z"/>
<path d="M4317 2905 c6 -32 11 -41 17 -34 2 2 -2 18 -10 34 l-13 30 6 -30z"/>
<path d="M1580 2899 c37 -25 70 -39 70 -29 0 5 -6 10 -14 10 -7 0 -19 7 -26
15 -7 8 -20 15 -29 15 -14 0 -14 -2 -1 -11z"/>
<path d="M1522 2870 c0 -19 4 -48 8 -65 7 -29 8 -28 8 10 0 22 -4 51 -8 65 -7
23 -8 22 -8 -10z"/>
<path d="M5741 2887 c-28 -14 -44 -59 -36 -100 7 -42 29 -59 72 -55 51 4 52
23 1 23 -39 0 -43 2 -48 30 -13 68 22 111 69 86 13 -7 21 -8 21 -2 0 10 -32
31 -47 31 -4 0 -19 -6 -32 -13z"/>
<path d="M6123 2873 c4 -3 2 -12 -4 -20 -8 -9 -8 -17 0 -26 6 -8 8 -17 5 -20
-4 -3 -3 -22 0 -42 6 -30 11 -35 34 -34 l27 0 -22 16 c-31 21 -33 83 -3 83 11
0 20 4 20 9 0 5 -9 13 -20 16 -11 3 -20 11 -20 16 0 5 -5 9 -12 9 -6 0 -8 -3
-5 -7z"/>
<path d="M6442 2855 c-6 -14 -7 -25 -2 -25 5 0 10 -21 12 -47 3 -41 6 -48 26
-51 25 -4 30 13 7 22 -9 3 -15 19 -15 41 0 24 4 35 15 35 20 0 19 6 -5 30 -25
25 -24 25 -38 -5z"/>
<path d="M1667 2844 c3 -8 11 -14 18 -14 7 0 15 -4 17 -9 3 -10 109 -74 113
-69 1 2 -33 26 -76 55 -43 28 -75 45 -72 37z"/>
<path d="M5862 2841 c-25 -21 -30 -79 -10 -99 20 -20 76 -15 88 7 16 31 12 69
-10 91 -25 25 -41 25 -68 1z m64 -36 c10 -39 -2 -57 -33 -53 -47 5 -45 78 1
78 19 0 27 -7 32 -25z"/>
<path d="M6025 2850 c-4 -6 -15 -8 -26 -5 -17 6 -19 1 -19 -54 0 -47 3 -61 14
-61 11 0 16 14 18 48 3 40 6 47 26 50 20 3 22 -1 22 -42 0 -25 5 -48 10 -51
17 -11 12 92 -6 109 -18 19 -30 20 -39 6z"/>
<path d="M6225 2834 c-45 -49 -24 -104 39 -104 20 0 36 5 36 10 0 6 -15 10
-34 10 -20 0 -36 6 -39 14 -5 11 4 16 36 18 49 4 60 25 28 57 -27 27 -37 26
-66 -5z m60 -14 c4 -6 -7 -10 -24 -10 -17 0 -31 5 -31 10 0 6 11 10 24 10 14
0 28 -4 31 -10z"/>
<path d="M6326 2851 c-4 -6 0 -18 8 -27 21 -20 20 -53 -1 -76 -15 -17 -15 -18
0 -18 10 0 17 3 17 8 0 4 4 14 9 21 8 12 13 11 29 -10 26 -31 39 -19 17 15
-16 24 -16 28 -1 51 18 28 21 45 6 45 -5 0 -10 -6 -10 -14 0 -7 -6 -19 -14
-25 -11 -9 -18 -6 -33 15 -13 18 -22 23 -27 15z"/>
<path d="M410 2754 c0 -67 2 -75 15 -64 10 9 15 9 15 1 0 -15 19 -14 36 3 31
32 8 91 -33 84 -14 -2 -17 3 -15 25 1 15 -2 27 -8 27 -6 0 -10 -30 -10 -76z
m58 -22 c2 -23 -1 -32 -12 -32 -23 0 -36 30 -23 52 17 26 31 17 35 -20z"/>
<path d="M228 2809 c-27 -15 -22 -46 10 -61 36 -18 35 -41 -3 -48 -28 -6 -28
-7 -8 -14 27 -9 63 12 63 36 0 10 -13 24 -30 33 -38 20 -40 45 -2 45 21 0 24
2 12 10 -18 12 -21 12 -42 -1z"/>
<path d="M527 2813 c-4 -3 -7 -35 -7 -70 0 -57 2 -63 20 -63 38 0 70 30 70 64
0 50 -56 96 -83 69z m52 -27 c7 -8 11 -30 9 -48 -2 -28 -7 -33 -28 -33 -21 0
-26 5 -28 33 -6 58 19 82 47 48z"/>
<path d="M4351 2810 c0 -8 4 -24 9 -35 5 -13 9 -14 9 -5 0 8 -4 24 -9 35 -5
13 -9 14 -9 5z"/>
<path d="M5587 2799 c4 -13 8 -18 11 -10 2 7 -1 18 -6 23 -8 8 -9 4 -5 -13z"/>
<path d="M1156 2794 c-4 -12 -2 -15 9 -10 12 4 15 -4 15 -39 0 -25 -4 -45 -10
-45 -5 0 -10 -4 -10 -10 0 -5 14 -10 30 -10 17 0 30 5 30 10 0 6 -4 10 -10 10
-5 0 -10 25 -10 55 0 47 -3 55 -19 55 -10 0 -22 -7 -25 -16z"/>
<path d="M3750 2758 c0 -62 5 -60 13 5 4 28 3 47 -3 47 -6 0 -10 -23 -10 -52z"/>
<path d="M311 2744 c-1 -48 13 -64 52 -57 25 5 27 9 27 49 0 32 -4 44 -15 44
-11 0 -15 -11 -15 -41 0 -33 -3 -40 -17 -37 -12 2 -20 16 -24 43 l-6 40 -2
-41z"/>
<path d="M640 2754 c-15 -27 -8 -49 23 -68 20 -13 57 18 57 49 0 48 -57 62
-80 19z m60 -31 c0 -20 -4 -24 -22 -21 -26 3 -35 32 -17 54 16 19 39 0 39 -33z"/>
<path d="M742 2739 c-1 -21 2 -40 8 -44 6 -4 10 5 10 22 0 15 5 35 10 43 9 13
11 13 20 0 5 -8 10 -31 10 -49 0 -45 17 -29 22 19 4 45 22 41 26 -5 2 -19 8
-35 13 -35 6 0 9 19 7 43 l-3 42 -60 1 -60 1 -3 -38z"/>
<path d="M905 2770 c-4 -6 3 -9 16 -7 31 3 35 -19 4 -27 -38 -10 -32 -51 7
-51 17 -1 30 5 33 15 5 16 0 54 -10 70 -8 13 -42 13 -50 0z m45 -55 c0 -8 -9
-15 -20 -15 -20 0 -26 11 -13 23 12 13 33 7 33 -8z"/>
<path d="M1003 2730 c0 -30 2 -43 4 -27 2 15 2 39 0 55 -2 15 -4 2 -4 -28z"/>
<path d="M1052 2725 c1 -41 2 -43 5 -15 9 72 52 73 54 1 2 -32 2 -33 6 -7 8
52 -4 75 -37 73 -29 -2 -30 -3 -28 -52z"/>
<path d="M5600 2762 c0 -5 9 -20 21 -33 11 -13 27 -36 35 -51 8 -16 17 -28 20
-28 8 0 -27 63 -52 93 -13 16 -24 24 -24 19z"/>
<path d="M6672 2735 c0 -16 2 -22 5 -12 2 9 2 23 0 30 -3 6 -5 -1 -5 -18z"/>
<path d="M1541 2725 c0 -16 6 -57 13 -90 9 -40 14 -50 15 -30 0 17 -6 57 -13
90 -9 40 -14 50 -15 30z"/>
<path d="M1865 2725 c43 -26 64 -33 43 -12 -13 13 -63 37 -76 37 -4 0 11 -11
33 -25z"/>
<path d="M1930 2693 c0 -9 81 -45 88 -39 2 3 -13 13 -34 22 -22 10 -42 20 -46
22 -5 2 -8 0 -8 -5z"/>
<path d="M6661 2682 c0 -12 -12 -40 -26 -62 -14 -22 -25 -43 -25 -47 0 -5 14
13 31 39 19 30 29 55 26 70 l-4 23 -2 -23z"/>
<path d="M4400 2671 c0 -6 4 -13 10 -16 6 -3 7 1 4 9 -7 18 -14 21 -14 7z"/>
<path d="M2035 2640 c3 -5 10 -10 16 -10 5 0 9 5 9 10 0 6 -7 10 -16 10 -8 0
-12 -4 -9 -10z"/>
<path d="M3753 2605 c0 -27 2 -38 4 -22 2 15 2 37 0 50 -2 12 -4 0 -4 -28z"/>
<path d="M4420 2634 c0 -6 7 -19 16 -30 14 -18 14 -18 3 6 -14 31 -19 36 -19
24z"/>
<path d="M5701 2603 c19 -37 61 -83 76 -83 4 0 19 -11 33 -25 14 -13 60 -57
102 -98 71 -67 76 -74 60 -88 -9 -7 -42 -34 -72 -59 -30 -25 -56 -48 -58 -52
-2 -5 -8 -8 -12 -8 -5 0 -22 -12 -38 -27 -44 -42 -93 -83 -99 -83 -3 0 -13 -8
-22 -18 -9 -10 -44 -40 -78 -66 -35 -27 -63 -53 -63 -57 0 -5 -7 -9 -15 -9 -8
0 -15 -3 -15 -8 0 -4 -29 -29 -64 -56 -36 -27 -67 -55 -70 -62 -3 -7 27 -36
70 -69 42 -31 83 -66 92 -77 10 -11 24 -28 33 -37 9 -9 24 -31 33 -48 9 -18
21 -33 26 -33 5 0 -1 15 -13 33 -50 73 -83 110 -121 137 -23 15 -57 41 -76 58
l-35 31 22 18 c57 48 72 61 123 102 30 24 57 47 60 51 3 3 43 37 90 75 47 38
87 71 90 75 3 3 25 21 50 40 25 19 47 37 50 40 3 4 32 28 65 55 33 26 63 53
67 60 9 14 -168 190 -225 224 -25 15 -44 37 -54 62 -8 22 -19 39 -23 39 -4 0
1 -17 11 -37z"/>
<path d="M2084 2615 c22 -17 40 -20 32 -6 -3 5 -16 11 -28 14 -22 6 -22 5 -4
-8z"/>
<path d="M2144 2585 c11 -8 24 -15 30 -15 5 0 1 7 -10 15 -10 8 -23 14 -29 14
-5 0 -1 -6 9 -14z"/>
<path d="M2710 2553 c0 -20 3 -33 7 -29 11 11 12 66 2 66 -5 0 -9 -16 -9 -37z"/>
<path d="M2190 2566 c0 -2 7 -7 16 -10 8 -3 12 -2 9 4 -6 10 -25 14 -25 6z"/>
<path d="M6555 2538 c-41 -45 -54 -92 -53 -178 l1 -75 7 92 c6 78 11 98 35
133 16 22 35 45 44 50 9 5 11 10 5 10 -6 0 -24 -14 -39 -32z"/>
<path d="M2230 2545 c0 -7 63 -45 74 -45 5 0 -8 11 -28 25 -37 25 -46 29 -46
20z"/>
<path d="M1576 2475 c4 -38 11 -77 16 -85 11 -19 -1 106 -13 135 -5 12 -6 -7
-3 -50z"/>
<path d="M4461 2524 c0 -11 3 -14 6 -6 3 7 2 16 -1 19 -3 4 -6 -2 -5 -13z"/>
<path d="M2701 2494 c0 -11 3 -14 6 -6 3 7 2 16 -1 19 -3 4 -6 -2 -5 -13z"/>
<path d="M2334 2485 c8 -8 21 -15 28 -15 8 1 6 6 -6 15 -26 20 -42 19 -22 0z"/>
<path d="M3750 2483 c0 -10 5 -25 10 -33 7 -11 10 -7 10 18 0 17 -4 32 -10 32
-5 0 -10 -8 -10 -17z"/>
<path d="M4471 2490 c0 -8 4 -24 9 -35 5 -13 9 -14 9 -5 0 8 -4 24 -9 35 -5
13 -9 14 -9 5z"/>
<path d="M2384 2461 c3 -5 16 -11 28 -14 22 -6 22 -5 4 8 -22 17 -40 20 -32 6z"/>
<path d="M2673 2445 c-6 -14 -9 -25 -6 -25 7 0 32 33 33 43 0 16 -16 5 -27
-18z"/>
<path d="M2445 2430 c3 -5 18 -10 33 -10 21 0 24 2 12 10 -20 13 -53 13 -45 0z"/>
<path d="M2553 2413 c15 -2 39 -2 55 0 15 2 2 4 -28 4 -30 0 -43 -2 -27 -4z"/>
<path d="M4520 2353 c9 -21 20 -45 23 -53 4 -12 6 -12 6 -1 1 19 -31 91 -40
91 -4 0 1 -17 11 -37z"/>
<path d="M3772 2298 c-2 -57 -2 -58 26 -57 22 1 23 2 5 6 -19 4 -23 12 -26 56
l-3 52 -2 -57z"/>
<path d="M1602 2315 c0 -16 4 -41 8 -55 l8 -25 0 25 c0 14 -4 39 -8 55 l-8 30
0 -30z"/>
<path d="M6010 2317 c0 -25 118 -108 152 -107 7 0 -9 11 -36 24 -26 14 -64 39
-82 57 -19 18 -34 30 -34 26z"/>
<path d="M3913 2243 c37 -2 97 -2 135 0 37 2 6 3 -68 3 -74 0 -105 -1 -67 -3z"/>
<path d="M3713 2233 c9 -2 25 -2 35 0 9 3 1 5 -18 5 -19 0 -27 -2 -17 -5z"/>
<path d="M4260 2229 c52 -5 122 -10 155 -13 l60 -4 -55 9 c-30 6 -100 11 -155
13 l-100 3 95 -8z"/>
<path d="M4586 2227 c3 -10 9 -15 12 -12 3 3 0 11 -7 18 -10 9 -11 8 -5 -6z"/>
<path d="M4495 2200 c3 -5 21 -10 38 -9 31 1 31 1 7 9 -36 11 -52 11 -45 0z"/>
<path d="M6205 2200 c3 -4 22 -11 42 -15 21 -4 45 -12 53 -18 13 -10 13 -9 0
5 -15 16 -104 42 -95 28z"/>
<path d="M1024 2148 c-66 -63 -112 -120 -89 -112 8 3 15 10 15 15 0 4 28 36
63 71 61 62 63 63 127 69 l65 6 -63 1 c-62 2 -62 2 -118 -50z"/>
<path d="M3773 2145 c0 -33 2 -45 4 -27 2 18 2 45 0 60 -2 15 -4 0 -4 -33z"/>
<path d="M4585 2189 c-20 -7 -20 -8 1 -8 11 -1 24 -4 27 -8 12 -11 79 -15 72
-3 -3 5 -15 10 -26 10 -11 0 -28 4 -37 9 -9 5 -26 5 -37 0z"/>
<path d="M1445 2180 c127 -3 235 -8 240 -9 6 -2 17 -2 25 -1 49 8 -115 18
-290 17 l-205 -1 230 -6z"/>
<path d="M3692 2174 c-7 -8 -8 -14 -3 -14 10 0 25 19 20 25 -2 1 -10 -3 -17
-11z"/>
<path d="M1810 2150 c0 -5 10 -10 23 -10 18 0 19 2 7 10 -19 13 -30 13 -30 0z"/>
<path d="M3605 2150 c-18 -8 -17 -9 7 -9 15 -1 30 4 33 9 7 12 -12 12 -40 0z"/>
<path d="M4735 2150 c3 -5 14 -10 23 -10 9 0 30 -7 46 -15 16 -9 31 -13 34
-10 5 5 -83 45 -99 45 -6 0 -7 -4 -4 -10z"/>
<path d="M6320 2150 c0 -5 17 -10 38 -9 33 1 34 2 12 9 -36 11 -50 11 -50 0z"/>
<path d="M1890 2131 c19 -4 46 -11 60 -15 18 -6 22 -5 15 3 -6 6 -33 13 -60
16 -41 3 -43 3 -15 -4z"/>
<path d="M3525 2125 c-39 -17 -21 -18 25 0 19 7 28 14 20 14 -8 0 -28 -6 -45
-14z"/>
<path d="M6429 2124 c19 -8 36 -12 39 -9 5 5 -43 25 -61 25 -7 -1 3 -7 22 -16z"/>
<path d="M4661 2126 c2 -2 15 -9 29 -15 24 -11 24 -11 6 3 -16 13 -49 24 -35
12z"/>
<path d="M1984 2101 c3 -4 20 -11 37 -15 17 -3 47 -22 66 -41 41 -41 50 -44
28 -11 -22 34 -151 101 -131 67z"/>
<path d="M3435 2093 c-18 -14 -18 -15 -2 -9 10 3 23 6 28 6 5 0 9 5 9 10 0 14
-12 12 -35 -7z"/>
<path d="M4874 2095 c11 -8 25 -15 30 -15 6 0 2 7 -8 15 -11 8 -25 15 -30 15
-6 0 -2 -7 8 -15z"/>
<path d="M3380 2070 c-8 -5 -10 -10 -5 -10 6 0 17 5 25 10 8 5 11 10 5 10 -5
0 -17 -5 -25 -10z"/>
<path d="M4930 2070 c8 -5 22 -10 30 -10 13 0 13 1 0 10 -8 5 -22 10 -30 10
-13 0 -13 -1 0 -10z"/>
<path d="M3320 2044 c-14 -7 -50 -25 -80 -39 -79 -38 -230 -128 -230 -138 0
-5 12 0 28 11 15 10 34 22 42 25 21 9 54 31 60 39 3 3 53 29 113 57 59 28 107
53 107 56 0 8 -12 5 -40 -11z"/>
<path d="M5006 2035 c45 -42 174 -119 160 -96 -4 6 -34 24 -66 42 -33 17 -60
36 -60 40 0 5 -5 9 -12 9 -6 0 -19 6 -28 13 -9 6 -6 3 6 -8z"/>
<path d="M4771 2033 c24 -29 51 -55 54 -51 4 4 -53 68 -61 68 -4 0 0 -8 7 -17z"/>
<path d="M3771 2024 c0 -11 3 -14 6 -6 3 7 2 16 -1 19 -3 4 -6 -2 -5 -13z"/>
<path d="M862 2010 c-15 -14 -22 -33 -22 -56 0 -19 -5 -44 -10 -55 -6 -11 -7
-19 -2 -19 12 0 22 35 22 77 0 22 8 37 28 52 15 11 22 21 16 21 -5 0 -20 -9
-32 -20z"/>
<path d="M2140 2006 c0 -3 15 -15 33 -27 l32 -22 -27 27 c-25 24 -38 32 -38
22z"/>
<path d="M3757 1983 c-4 -3 -7 -11 -7 -17 0 -6 5 -5 12 2 6 6 9 14 7 17 -3 3
-9 2 -12 -2z"/>
<path d="M2210 1941 c0 -10 60 -64 65 -59 3 2 -11 18 -30 36 -19 17 -35 28
-35 23z"/>
<path d="M4880 1922 c0 -12 19 -26 26 -19 2 2 -2 10 -11 17 -9 8 -15 8 -15 2z"/>
<path d="M5220 1891 c25 -21 47 -37 49 -35 7 6 -70 74 -83 74 -6 0 9 -18 34
-39z"/>
<path d="M1900 1889 c0 -28 -2 -31 -25 -25 -52 13 -88 -70 -47 -108 12 -10 31
-15 53 -12 l34 3 3 87 c2 55 -1 86 -8 86 -5 0 -10 -14 -10 -31z m-14 -54 c32
-32 -6 -94 -40 -66 -19 16 -21 52 -4 69 16 16 26 15 44 -3z"/>
<path d="M2160 1889 c0 -26 -3 -29 -21 -24 -31 10 -59 -21 -59 -66 0 -44 10
-53 67 -55 l43 -1 0 89 c0 72 -3 88 -15 88 -10 0 -15 -10 -15 -31z m-5 -84 c0
-33 -4 -41 -21 -43 -16 -2 -23 3 -27 20 -10 39 3 69 27 66 17 -2 21 -10 21
-43z"/>
<path d="M1273 1903 c-9 -3 -13 -29 -13 -79 0 -83 6 -91 65 -80 41 8 54 36 31
71 -10 15 -12 26 -6 30 12 7 13 42 3 48 -15 9 -68 16 -80 10z m62 -38 c0 -13
-8 -21 -22 -23 -19 -3 -23 1 -23 23 0 22 4 26 23 23 14 -2 22 -10 22 -23z m3
-77 c3 -24 0 -28 -22 -28 -22 0 -26 4 -26 31 0 26 3 30 23 27 16 -2 23 -11 25
-30z"/>
<path d="M4920 1896 c0 -2 7 -7 16 -10 8 -3 12 -2 9 4 -6 10 -25 14 -25 6z"/>
<path d="M2290 1874 c0 -4 11 -17 25 -30 30 -28 34 -17 5 14 -21 22 -30 27
-30 16z"/>
<path d="M3690 1845 c-19 -19 -30 -35 -24 -35 11 0 68 59 62 65 -2 3 -20 -11
-38 -30z"/>
<path d="M1415 1845 c-30 -29 -32 -54 -5 -83 24 -26 47 -28 78 -6 28 19 29 67
2 94 -26 26 -46 25 -75 -5z m65 -9 c15 -19 9 -56 -11 -69 -25 -16 -49 -1 -49
31 0 46 35 68 60 38z"/>
<path d="M1540 1810 c0 -41 4 -60 13 -61 6 -1 29 -3 50 -4 l37 -2 0 63 c0 36
-4 64 -10 64 -5 0 -10 -22 -10 -49 0 -35 -4 -51 -16 -55 -29 -11 -34 -6 -34
33 0 44 -8 71 -21 71 -5 0 -9 -27 -9 -60z"/>
<path d="M1674 1847 c-8 -36 -1 -100 13 -104 8 -3 13 12 15 43 2 31 9 51 20
58 24 14 30 4 36 -54 6 -66 22 -64 22 3 0 47 -3 55 -25 67 -20 11 -27 11 -40
0 -10 -8 -15 -9 -15 -1 0 21 -20 11 -26 -12z"/>
<path d="M1972 1850 c-26 -24 -29 -72 -6 -94 17 -17 42 -20 71 -9 13 6 8 9
-22 13 -27 3 -41 11 -43 22 -3 13 6 17 39 20 50 4 59 18 28 47 -28 26 -40 26
-67 1z m56 -21 c2 -12 -4 -15 -27 -11 -21 3 -28 8 -24 19 7 18 47 13 51 -8z"/>
<path d="M807 1843 c-4 -3 -7 -13 -7 -22 1 -13 3 -13 11 2 11 19 8 33 -4 20z"/>
<path d="M2975 1815 c-10 -19 -15 -38 -13 -43 1 -4 12 11 24 35 12 24 17 43
13 43 -4 0 -15 -16 -24 -35z"/>
<path d="M5285 1840 c3 -6 21 -17 38 -26 28 -13 29 -13 12 0 -11 9 -25 20 -32
26 -16 13 -26 13 -18 0z"/>
<path d="M6140 1786 c0 -59 2 -64 24 -70 41 -10 56 2 56 45 0 39 -5 43 -42 40
-13 -2 -18 5 -18 23 0 14 -4 26 -10 26 -6 0 -10 -28 -10 -64z m63 -10 c7 -18
-3 -56 -14 -56 -14 0 -29 37 -23 54 8 20 30 21 37 2z"/>
<path d="M5951 1826 c-15 -18 4 -52 32 -60 32 -8 17 -41 -18 -39 -24 2 -27 0
-13 -8 10 -5 29 -7 43 -3 36 9 33 45 -6 68 -34 20 -34 37 2 47 l24 7 -26 1
c-15 1 -32 -5 -38 -13z"/>
<path d="M6250 1774 l0 -67 37 6 c21 4 44 14 50 24 32 43 -2 103 -57 103 l-30
0 0 -66z m59 47 c30 -19 10 -101 -25 -101 -10 0 -14 15 -14 55 0 56 8 65 39
46z"/>
<path d="M6918 1825 c22 -16 23 -18 6 -43 -10 -15 -24 -33 -31 -40 -23 -23
-14 -32 30 -31 29 2 34 3 15 6 -33 5 -35 16 -7 44 29 29 23 73 -11 77 l-25 3
23 -16z"/>
<path d="M5017 1809 c7 -7 15 -10 18 -7 3 3 -2 9 -12 12 -14 6 -15 5 -6 -5z"/>
<path d="M2355 1790 c11 -13 28 -32 38 -43 10 -10 25 -33 32 -50 8 -18 14 -25
14 -17 0 27 -55 105 -89 125 -9 5 -6 -2 5 -15z"/>
<path d="M6393 1802 c-21 -13 -26 -58 -8 -76 18 -18 25 -19 49 -10 17 7 23 84
7 84 -5 0 -15 2 -23 5 -7 3 -18 1 -25 -3z m41 -28 c7 -17 -10 -54 -24 -54 -17
0 -29 34 -19 52 12 22 35 23 43 2z"/>
<path d="M6503 1802 c-20 -3 -23 -9 -22 -50 1 -26 3 -38 6 -27 2 11 6 30 9 43
8 40 34 27 34 -18 0 -22 5 -40 10 -40 6 0 10 12 10 28 0 15 4 33 9 41 13 20
31 4 31 -29 0 -16 5 -32 11 -35 7 -5 9 8 7 37 -3 42 -4 43 -43 48 -22 3 -50 4
-62 2z"/>
<path d="M6648 1802 c-28 -6 -21 -20 7 -14 14 2 25 0 25 -7 0 -6 -11 -13 -25
-17 -28 -7 -34 -38 -9 -48 23 -9 31 -7 15 3 -15 10 -8 41 9 41 5 0 10 -9 10
-20 0 -11 7 -20 15 -20 28 0 13 72 -17 82 -7 2 -21 3 -30 0z"/>
<path d="M781 1777 c-13 -21 -12 -21 5 -5 10 10 16 20 13 22 -3 3 -11 -5 -18
-17z"/>
<path d="M6040 1760 c0 -41 1 -42 53 -44 25 -2 27 1 27 41 0 24 -4 43 -10 43
-5 0 -10 -12 -10 -27 0 -16 -5 -35 -10 -43 -9 -13 -11 -13 -20 0 -5 8 -10 27
-10 43 0 15 -4 27 -10 27 -5 0 -10 -18 -10 -40z"/>
<path d="M6739 1798 c-6 -18 -5 -56 2 -68 6 -10 8 -1 9 28 0 23 -2 42 -5 42
-3 0 -5 -1 -6 -2z"/>
<path d="M6781 1758 c2 -29 3 -34 6 -16 5 30 27 53 43 43 5 -3 10 -22 10 -41
0 -21 4 -33 10 -29 11 7 13 45 4 69 -4 10 -18 16 -40 16 -34 0 -34 -1 -33 -42z"/>
<path d="M5040 1780 c0 -5 5 -10 11 -10 5 0 7 5 4 10 -3 6 -8 10 -11 10 -2 0
-4 -4 -4 -10z"/>
<path d="M3616 1755 c-11 -8 -17 -17 -14 -20 2 -3 13 4 23 15 21 23 18 25 -9
5z"/>
<path d="M5100 1747 c0 -12 44 -77 52 -77 4 0 -4 17 -18 37 -29 43 -34 49 -34
40z"/>
<path d="M757 1728 c-2 -7 -1 -22 4 -33 6 -16 8 -14 8 13 1 33 -4 41 -12 20z"/>
<path d="M2954 1600 c0 -69 1 -97 3 -62 2 34 2 90 0 125 -2 34 -3 6 -3 -63z"/>
<path d="M4530 1650 c0 -27 -3 -30 -34 -30 -37 0 -46 -12 -46 -62 0 -40 20
-57 64 -55 l36 2 0 88 c0 51 -4 87 -10 87 -5 0 -10 -13 -10 -30z m-12 -49 c8
-5 12 -22 10 -42 -2 -29 -7 -34 -28 -34 -20 0 -26 6 -28 28 -2 16 2 35 9 43
13 16 19 17 37 5z"/>
<path d="M4800 1650 c0 -28 -3 -30 -35 -30 -31 0 -35 -3 -40 -33 -8 -43 9 -87
34 -87 11 0 23 5 26 10 5 8 11 8 19 1 7 -6 15 -9 17 -7 8 8 -3 176 -12 176 -5
0 -9 -13 -9 -30z m-12 -52 c32 -32 0 -95 -34 -67 -24 20 -12 79 16 79 3 0 11
-5 18 -12z"/>
<path d="M3902 1588 c3 -71 6 -83 21 -86 54 -10 105 39 77 73 -7 9 -10 25 -6
41 9 36 -9 54 -56 54 l-39 0 3 -82z m71 48 c7 -17 -11 -36 -35 -36 -13 0 -18
8 -18 25 0 20 5 25 24 25 13 0 26 -6 29 -14z m2 -70 c16 -12 17 -16 6 -30 -7
-9 -24 -16 -37 -16 -18 0 -24 5 -24 23 0 39 21 48 55 23z"/>
<path d="M2444 1631 c3 -18 6 -74 6 -124 0 -50 3 -87 7 -84 11 11 3 221 -9
232 -7 7 -9 0 -4 -24z"/>
<path d="M5190 1643 c0 -7 6 -16 13 -20 7 -4 21 -19 30 -33 9 -13 17 -19 17
-12 0 16 -59 81 -60 65z"/>
<path d="M3552 1615 c0 -16 2 -22 5 -12 2 9 2 23 0 30 -3 6 -5 -1 -5 -18z"/>
<path d="M4046 1604 c-11 -28 -6 -75 8 -90 44 -43 110 18 87 80 -9 22 -17 26
-50 26 -26 0 -41 -5 -45 -16z m70 -18 c10 -41 1 -61 -26 -61 -20 0 -26 6 -28
28 -5 40 4 57 27 57 13 0 23 -9 27 -24z"/>
<path d="M4180 1579 c0 -22 5 -49 10 -60 12 -21 45 -26 54 -6 5 9 7 9 12 -1 3
-6 10 -10 15 -6 12 7 12 114 -1 114 -5 0 -10 -17 -10 -39 0 -41 -20 -67 -45
-57 -10 4 -15 19 -15 51 0 25 -4 45 -10 45 -5 0 -10 -18 -10 -41z"/>
<path d="M4320 1558 c0 -37 4 -57 10 -53 6 3 10 23 10 44 0 22 6 44 15 51 25
20 45 -5 45 -56 0 -24 5 -44 10 -44 11 0 13 62 4 98 -6 19 -12 22 -50 20 l-44
-1 0 -59z"/>
<path d="M4592 1592 c-10 -29 0 -71 21 -84 17 -11 67 -10 67 1 0 6 -15 11 -32
13 -22 2 -34 9 -36 21 -3 13 4 17 32 17 39 0 50 11 41 40 -5 15 -15 20 -45 20
-33 0 -39 -4 -48 -28z m72 3 c6 -18 -16 -30 -39 -21 -20 7 -8 36 15 36 10 0
21 -7 24 -15z"/>
<path d="M782 1570 c0 -14 2 -19 5 -12 2 6 2 18 0 25 -3 6 -5 1 -5 -13z"/>
<path d="M1341 1564 c-12 -15 -21 -41 -21 -59 0 -61 77 -110 110 -70 11 13 8
14 -20 8 -27 -5 -36 -2 -51 18 -20 26 -26 79 -9 79 6 0 10 7 10 15 0 11 11 15
41 15 24 0 38 4 34 10 -3 6 -21 10 -40 10 -24 0 -39 -7 -54 -26z"/>
<path d="M1737 1551 c-16 -16 -16 -19 -2 -24 10 -5 15 -20 15 -51 0 -36 4 -46
21 -51 27 -9 39 4 16 16 -21 12 -24 77 -3 85 12 5 11 9 -5 25 -22 22 -19 22
-42 0z"/>
<path d="M2063 1550 c-8 -12 -9 -21 -3 -25 6 -3 10 -23 10 -44 0 -43 20 -67
47 -56 16 6 16 8 -4 16 -18 6 -23 16 -23 44 0 28 5 38 23 45 17 7 18 9 4 9
-10 1 -20 8 -23 16 -8 20 -17 19 -31 -5z"/>
<path d="M1488 1543 c-10 -2 -20 -19 -24 -39 -12 -64 41 -106 89 -70 17 14 23
70 9 93 -9 14 -50 23 -74 16z m52 -28 c7 -9 9 -26 5 -45 -5 -23 -12 -30 -30
-30 -12 0 -26 7 -29 16 -20 52 21 98 54 59z"/>
<path d="M1604 1541 c-9 -9 -4 -110 6 -116 6 -4 10 11 10 39 0 35 5 48 20 56
30 16 40 4 40 -45 0 -24 5 -47 10 -50 6 -4 10 17 10 54 0 47 -3 61 -15 62 -42
4 -77 4 -81 0z"/>
<path d="M1853 1540 c-19 -8 -23 -17 -23 -53 0 -36 4 -46 24 -56 15 -8 32 -10
47 -5 22 8 22 9 -11 14 -51 8 -54 38 -3 42 24 2 39 8 40 18 6 34 -35 55 -74
40z m47 -25 c0 -9 -9 -15 -25 -15 -24 0 -32 10 -18 23 12 13 43 7 43 -8z"/>
<path d="M1951 1545 c0 -5 6 -21 14 -35 7 -14 10 -29 5 -35 -4 -5 -11 -21 -15
-35 -7 -22 -6 -23 9 -11 9 7 16 20 16 27 0 21 18 17 30 -6 6 -11 16 -20 22
-20 6 0 3 11 -7 26 -14 22 -15 31 -6 52 15 31 6 42 -13 16 -14 -18 -15 -18
-35 6 -11 14 -20 21 -20 15z"/>
<path d="M5312 1510 c10 -16 48 -35 54 -27 1 1 -13 12 -32 24 -29 19 -32 19
-22 3z"/>
<path d="M5630 1513 c0 -5 8 -17 17 -28 14 -18 15 -18 9 -2 -3 10 -6 23 -6 28
0 5 -4 9 -10 9 -5 0 -10 -3 -10 -7z"/>
<path d="M800 1501 c0 -5 5 -13 10 -16 6 -3 10 -2 10 4 0 5 -4 13 -10 16 -5 3
-10 2 -10 -4z"/>
<path d="M2961 1460 c0 -8 4 -24 9 -35 5 -13 9 -14 9 -5 0 8 -4 24 -9 35 -5
13 -9 14 -9 5z"/>
<path d="M820 1457 c0 -12 42 -77 50 -77 5 0 12 -10 15 -21 4 -12 37 -51 73
-88 36 -36 57 -55 46 -42 -10 14 -34 40 -52 59 -18 18 -45 51 -60 74 -15 22
-34 51 -43 64 -19 29 -29 39 -29 31z"/>
<path d="M5660 1440 c0 -8 5 -22 10 -30 9 -13 10 -13 10 0 0 8 -5 22 -10 30
-9 13 -10 13 -10 0z"/>
<path d="M3507 1421 c-4 -17 -3 -21 5 -13 5 5 8 16 6 23 -3 8 -7 3 -11 -10z"/>
<path d="M5444 1425 c8 -8 18 -15 22 -15 3 0 1 7 -6 15 -7 8 -17 15 -22 15 -5
0 -3 -7 6 -15z"/>
<path d="M5480 1400 c0 -5 5 -10 10 -10 6 0 10 5 10 10 0 6 -4 10 -10 10 -5 0
-10 -4 -10 -10z"/>
<path d="M2985 1375 c7 -33 12 -41 20 -33 3 3 -2 18 -11 34 l-16 29 7 -30z"/>
<path d="M2432 1360 c0 -14 2 -19 5 -12 2 6 2 18 0 25 -3 6 -5 1 -5 -13z"/>
<path d="M5545 1370 c3 -5 14 -10 23 -10 15 0 15 2 2 10 -20 13 -33 13 -25 0z"/>
<path d="M3986 1335 c-37 -35 -37 -105 0 -134 31 -24 66 -27 83 -7 11 12 6 15
-31 18 l-43 3 -3 52 c-3 48 -1 54 22 64 19 9 29 9 39 1 19 -16 29 -3 12 14
-20 21 -49 17 -79 -11z"/>
<path d="M5600 1350 c0 -5 5 -10 11 -10 5 0 7 5 4 10 -3 6 -8 10 -11 10 -2 0
-4 -4 -4 -10z"/>
<path d="M3503 1300 c0 -30 2 -43 4 -27 2 15 2 39 0 55 -2 15 -4 2 -4 -28z"/>
<path d="M4379 1323 c-4 -42 3 -100 13 -120 13 -26 48 -31 48 -8 0 8 -7 15
-15 15 -11 0 -15 11 -15 40 0 29 4 40 15 40 8 0 15 5 15 10 0 6 -7 10 -15 10
-8 0 -15 7 -15 15 0 21 -30 19 -31 -2z"/>
<path d="M4710 1326 c0 -8 -6 -17 -12 -20 -10 -5 -10 -7 0 -12 7 -3 12 -24 12
-48 0 -42 13 -66 37 -66 7 0 13 7 13 15 0 8 -6 14 -12 13 -9 -2 -14 12 -16 40
-2 33 0 42 12 42 9 0 16 5 16 10 0 6 -7 10 -15 10 -8 0 -15 7 -15 15 0 8 -4
15 -10 15 -5 0 -10 -6 -10 -14z"/>
<path d="M5679 1335 c-3 -2 -3 -20 -1 -40 5 -40 22 -48 22 -10 0 14 5 25 11
25 6 0 4 7 -5 15 -16 16 -20 18 -27 10z"/>
<path d="M3026 1293 c10 -18 22 -33 26 -33 15 0 8 17 -19 41 l-26 24 19 -32z"/>
<path d="M4112 1298 c-27 -34 -21 -88 12 -110 53 -35 112 52 72 105 -15 20
-69 23 -84 5z m76 -45 c3 -34 -23 -58 -52 -47 -42 16 -23 87 22 82 22 -2 28
-9 30 -35z"/>
<path d="M4240 1244 c0 -36 4 -64 10 -64 6 0 10 15 10 33 0 56 10 77 36 77 22
0 24 -4 24 -56 0 -40 4 -55 13 -52 17 6 20 68 4 98 -10 20 -21 25 -55 26 l-42
2 0 -64z"/>
<path d="M4479 1294 c-20 -24 -16 -84 6 -101 23 -16 67 -14 73 5 3 9 -3 11
-21 7 -16 -4 -30 -1 -42 12 -18 17 -18 18 21 21 51 4 61 15 44 47 -16 29 -60
34 -81 9z m69 -21 c2 -9 -8 -13 -32 -13 -28 0 -34 3 -29 16 7 18 54 16 61 -3z"/>
<path d="M4580 1300 c0 -5 4 -10 9 -10 18 0 22 -52 6 -77 -24 -36 -10 -40 19
-7 l24 29 7 -27 c4 -16 13 -28 21 -28 18 0 18 18 -1 36 -8 9 -15 24 -15 34 0
10 7 25 15 34 19 18 19 26 1 26 -8 0 -18 -9 -21 -21 l-7 -21 -22 21 c-24 23
-36 26 -36 11z"/>
<path d="M5735 1300 c3 -5 11 -10 16 -10 6 0 7 5 4 10 -3 6 -11 10 -16 10 -6
0 -7 -4 -4 -10z"/>
<path d="M1246 1278 c-2 -7 -8 -29 -15 -49 -6 -19 -11 -46 -11 -60 0 -23 21
-94 31 -103 2 -2 4 47 4 110 0 109 -2 129 -9 102z"/>
<path d="M2112 1198 c2 -54 7 -93 13 -93 6 0 11 39 13 93 2 78 0 92 -13 92
-13 0 -15 -14 -13 -92z"/>
<path d="M2185 1175 c0 -96 2 -110 14 -97 21 20 21 160 1 188 -14 19 -15 11
-15 -91z"/>
<path d="M2396 1268 c-10 -39 -7 -44 9 -14 17 33 18 36 6 36 -5 0 -11 -10 -15
-22z"/>
<path d="M1538 1242 c-8 -30 8 -123 23 -133 21 -13 39 -11 39 6 0 8 -7 15 -15
15 -11 0 -15 11 -15 40 0 29 4 40 15 40 8 0 15 5 15 10 0 6 -7 10 -15 10 -8 0
-15 7 -15 15 0 21 -27 19 -32 -3z"/>
<path d="M5820 1245 c7 -9 15 -13 17 -11 7 7 -7 26 -19 26 -6 0 -6 -6 2 -15z"/>
<path d="M3060 1244 c0 -6 11 -21 25 -34 14 -13 25 -20 25 -16 0 4 -11 19 -25
34 -14 15 -25 22 -25 16z"/>
<path d="M1322 1222 c-7 -5 -15 -25 -18 -44 -5 -28 -2 -40 15 -57 25 -25 71
-25 79 -2 3 10 -1 12 -18 8 -25 -6 -60 7 -60 23 0 6 18 10 40 10 48 0 62 21
35 50 -19 21 -51 26 -73 12z m58 -27 c0 -10 -10 -15 -30 -15 -29 0 -38 9 -23
23 13 13 53 7 53 -8z"/>
<path d="M1420 1225 c0 -3 7 -16 15 -28 14 -22 10 -67 -6 -67 -5 0 -9 -7 -9
-15 0 -23 14 -18 31 12 l17 26 17 -26 c18 -28 35 -35 35 -16 0 6 -7 17 -15 25
-8 9 -15 24 -15 34 0 10 7 25 15 34 19 18 19 26 1 26 -8 0 -18 -9 -21 -21 l-7
-21 -22 21 c-22 20 -36 27 -36 16z"/>
<path d="M1638 1211 c-25 -25 -22 -64 6 -90 26 -24 66 -25 74 -2 3 10 0 12
-13 7 -24 -9 -55 2 -55 20 0 9 11 14 36 14 34 0 35 1 32 33 -3 28 -7 32 -33
34 -18 2 -37 -5 -47 -16z m62 -16 c0 -9 -9 -15 -25 -15 -16 0 -25 6 -25 15 0
9 9 15 25 15 16 0 25 -6 25 -15z"/>
<path d="M1760 1169 c0 -71 18 -88 22 -22 2 39 7 50 26 58 32 14 27 23 -13 22
l-35 -1 0 -57z"/>
<path d="M1850 1163 c0 -47 3 -64 13 -61 7 3 13 26 15 56 3 48 5 52 28 52 23
0 24 -3 24 -55 0 -30 5 -55 10 -55 15 0 12 106 -2 118 -7 5 -30 10 -50 10
l-38 0 0 -65z"/>
<path d="M1995 1220 c-4 -6 8 -10 29 -10 25 0 36 -4 36 -15 0 -9 -9 -15 -22
-15 -29 -1 -58 -22 -58 -43 0 -23 33 -38 69 -31 29 6 31 9 31 53 0 26 -5 52
-12 59 -15 15 -64 16 -73 2z m65 -74 c0 -14 -34 -28 -44 -18 -15 14 -4 32 19
32 15 0 25 -6 25 -14z"/>
<path d="M5860 1220 c8 -5 20 -10 25 -10 6 0 3 5 -5 10 -8 5 -19 10 -25 10 -5
0 -3 -5 5 -10z"/>
<path d="M2381 1203 c-1 -6 -4 -20 -7 -30 -5 -17 -5 -17 6 0 6 10 9 23 6 30
-3 9 -5 9 -5 0z"/>
<path d="M1030 1193 c0 -5 13 -17 28 -27 l27 -19 -24 26 c-26 28 -31 32 -31
20z"/>
<path d="M5970 1160 c17 -16 36 -30 42 -30 13 0 -52 59 -65 60 -4 0 6 -13 23
-30z"/>
<path d="M3135 1155 c17 -13 35 -24 40 -24 6 0 -3 11 -20 24 -16 14 -34 25
-40 25 -5 0 4 -11 20 -25z"/>
<path d="M5666 1158 c-3 -13 -5 -41 -5 -63 1 -34 3 -32 10 19 9 61 6 85 -5 44z"/>
<path d="M2351 1127 c-15 -39 -14 -45 5 -19 8 12 13 28 11 35 -3 6 -10 -1 -16
-16z"/>
<path d="M1097 1115 c23 -34 63 -72 63 -61 0 4 -19 26 -42 49 -32 33 -37 35
-21 12z"/>
<path d="M3487 1120 c-3 -11 -1 -20 4 -20 5 0 9 9 9 20 0 11 -2 20 -4 20 -2 0
-6 -9 -9 -20z"/>
<path d="M3190 1121 c0 -9 30 -24 36 -18 2 1 -6 8 -16 15 -11 7 -20 8 -20 3z"/>
<path d="M3245 1090 c3 -5 11 -10 16 -10 6 0 7 5 4 10 -3 6 -11 10 -16 10 -6
0 -7 -4 -4 -10z"/>
<path d="M6070 1096 c0 -8 62 -67 66 -63 5 5 -51 67 -59 67 -4 0 -7 -2 -7 -4z"/>
<path d="M2326 1065 c-3 -9 -6 -22 -5 -28 0 -7 5 -1 10 12 5 13 8 26 5 28 -2
2 -6 -3 -10 -12z"/>
<path d="M3287 1064 c3 -8 11 -14 19 -14 8 0 14 -4 14 -10 0 -5 5 -10 10 -10
19 0 10 15 -19 32 -24 13 -29 13 -24 2z"/>
<path d="M5641 1004 c-7 -20 -11 -38 -8 -40 3 -3 10 11 17 31 16 47 8 55 -9 9z"/>
<path d="M1226 1015 c10 -8 26 -15 35 -15 8 0 20 -5 27 -12 6 -6 14 -9 18 -6
7 7 -68 48 -88 48 -6 0 -3 -7 8 -15z"/>
<path d="M3378 1013 c17 -9 32 -24 33 -32 0 -11 2 -12 6 -4 3 8 15 11 31 7 27
-5 27 -5 4 8 -17 11 -20 16 -10 26 7 7 8 12 2 12 -6 0 -16 -6 -22 -12 -10 -10
-17 -10 -32 0 -11 6 -25 12 -32 11 -7 0 2 -8 20 -16z"/>
<path d="M2307 1006 c-4 -10 -5 -21 -2 -24 9 -9 17 6 13 25 -3 17 -4 17 -11
-1z"/>
<path d="M6190 1010 c8 -5 22 -9 30 -9 10 0 8 3 -5 9 -27 12 -43 12 -25 0z"/>
<path d="M6245 990 c3 -5 11 -10 16 -10 6 0 7 5 4 10 -3 6 -11 10 -16 10 -6 0
-7 -4 -4 -10z"/>
<path d="M1330 976 c0 -8 94 -56 103 -53 5 1 -9 11 -32 21 -22 11 -41 23 -41
28 0 4 -7 8 -15 8 -8 0 -15 -2 -15 -4z"/>
<path d="M3500 965 c14 -8 32 -14 40 -15 8 0 2 7 -14 15 -36 19 -59 19 -26 0z"/>
<path d="M2291 954 c0 -11 3 -14 6 -6 3 7 2 16 -1 19 -3 4 -6 -2 -5 -13z"/>
<path d="M3580 935 c33 -19 49 -19 24 0 -10 8 -26 14 -34 14 -9 0 -4 -6 10
-14z"/>
<path d="M6336 935 c10 -8 24 -14 29 -14 6 0 1 6 -9 14 -11 8 -24 15 -30 15
-5 0 -1 -7 10 -15z"/>
<path d="M5611 907 c-6 -16 -27 -44 -48 -63 -20 -19 -33 -37 -30 -40 5 -6 74
65 90 93 5 7 6 19 4 26 -3 7 -10 -1 -16 -16z"/>
<path d="M1480 910 c8 -5 20 -10 25 -10 6 0 3 5 -5 10 -8 5 -19 10 -25 10 -5
0 -3 -5 5 -10z"/>
<path d="M2272 895 c-6 -14 -8 -25 -3 -25 8 0 23 41 17 47 -1 2 -8 -8 -14 -22z"/>
<path d="M3354 885 c-10 -19 -22 -35 -26 -35 -5 0 -8 -4 -8 -10 0 -21 16 -8
42 35 15 25 24 45 19 45 -4 0 -16 -16 -27 -35z"/>
<path d="M3641 909 c8 -5 34 -8 59 -8 53 1 44 6 -24 12 -30 3 -43 1 -35 -4z"/>
<path d="M6380 916 c0 -2 7 -7 16 -10 8 -3 12 -2 9 4 -6 10 -25 14 -25 6z"/>
<path d="M1545 885 c34 -16 74 -20 60 -6 -6 4 -28 11 -50 14 l-40 5 30 -13z"/>
<path d="M3785 889 c22 -5 54 -12 70 -15 25 -4 27 -3 13 6 -10 6 -42 13 -70
15 -53 4 -53 4 -13 -6z"/>
<path d="M6460 880 c0 -5 5 -10 11 -10 5 0 7 5 4 10 -3 6 -8 10 -11 10 -2 0
-4 -4 -4 -10z"/>
<path d="M3930 860 c25 -8 127 -13 119 -6 -2 2 -35 6 -74 9 -41 3 -60 2 -45
-3z"/>
<path d="M6490 864 c0 -7 52 -25 57 -20 2 2 -10 8 -26 14 -17 6 -31 9 -31 6z"/>
<path d="M1703 853 c15 -2 37 -2 50 0 12 2 0 4 -28 4 -27 0 -38 -2 -22 -4z"/>
<path d="M1830 841 c20 -4 42 -11 50 -15 8 -4 6 0 -4 8 -11 9 -34 15 -50 15
-31 -1 -31 -1 4 -8z"/>
<path d="M4120 835 c25 -8 52 -15 60 -15 30 1 -16 19 -61 25 l-44 5 45 -15z"/>
<path d="M2080 810 l-125 -6 127 -2 c76 -1 129 2 133 8 3 6 3 9 -2 8 -4 -1
-64 -5 -133 -8z"/>
<path d="M4468 812 c14 -9 140 -17 131 -8 -2 3 -36 8 -74 11 -41 3 -65 2 -57
-3z"/>
<path d="M4700 785 c97 -17 132 -17 55 1 -33 7 -76 13 -95 12 -22 0 -7 -5 40
-13z"/>
<path d="M5480 785 c-14 -8 -20 -14 -15 -14 6 0 21 6 35 14 14 8 21 14 15 14
-5 0 -21 -6 -35 -14z"/>
<path d="M3257 762 c-38 -39 -34 -50 4 -12 17 17 29 33 27 35 -2 3 -17 -8 -31
-23z"/>
<path d="M4856 761 c5 -5 27 -11 49 -14 l40 -6 -35 14 c-41 16 -69 19 -54 6z"/>
<path d="M5418 765 c-3 -3 -38 -9 -79 -15 l-74 -9 80 5 c43 2 84 9 89 14 7 7
7 10 0 10 -6 0 -13 -2 -16 -5z"/>
<path d="M5033 733 c43 -2 110 -2 150 0 40 1 5 3 -78 3 -82 0 -115 -2 -72 -3z"/>
<path d="M3172 634 c-30 -29 -31 -32 -9 -21 23 10 53 45 45 52 -2 1 -18 -13
-36 -31z"/>
<path d="M3117 553 c-4 -3 -7 -11 -7 -17 0 -6 5 -5 12 2 6 6 9 14 7 17 -3 3
-9 2 -12 -2z"/>
<path d="M4212 460 c-2 -74 -1 -76 21 -75 31 0 57 22 57 48 0 22 -42 65 -48
48 -7 -22 -21 -10 -25 22 -2 17 -5 -2 -5 -43z m58 -24 c0 -25 -15 -36 -37 -29
-7 3 -13 16 -13 29 0 19 5 24 25 24 20 0 25 -5 25 -24z"/>
<path d="M3097 513 c-4 -3 -7 -13 -7 -22 1 -13 3 -13 11 2 11 19 8 33 -4 20z"/>
<path d="M4010 487 c0 -15 9 -29 25 -37 34 -18 28 -46 -9 -43 -23 2 -26 0 -16
-13 16 -18 37 -18 56 0 21 22 17 42 -13 64 -26 19 -24 49 3 38 8 -3 14 -1 14
4 0 6 -13 10 -30 10 -25 0 -30 -4 -30 -23z"/>
<path d="M4312 448 c3 -60 4 -63 29 -66 30 -3 69 36 69 70 0 40 -19 58 -61 58
l-40 0 3 -62z m68 32 c11 -11 20 -23 20 -28 0 -18 -33 -52 -51 -52 -16 0 -19
7 -19 43 0 62 15 72 50 37z"/>
<path d="M4790 500 c0 -5 5 -10 10 -10 6 0 10 5 10 10 0 6 -4 10 -10 10 -5 0
-10 -4 -10 -10z"/>
<path d="M4950 501 c0 -5 9 -7 20 -4 15 4 20 0 20 -16 0 -12 -6 -21 -15 -21
-22 0 -18 -17 6 -23 30 -8 17 -32 -15 -30 -23 2 -26 0 -16 -13 17 -19 34 -18
55 6 13 15 16 23 8 31 -6 6 -9 26 -6 45 5 33 4 34 -26 34 -17 0 -31 -4 -31 -9z"/>
<path d="M4446 471 c-19 -21 -20 -50 -2 -73 17 -23 28 -23 54 1 27 22 28 43 5
63 -31 26 -40 28 -57 9z m52 -37 c2 -13 -4 -24 -13 -28 -24 -9 -35 1 -35 30 0
21 4 25 23 22 13 -2 23 -11 25 -24z"/>
<path d="M4630 482 c0 -6 -18 -9 -45 -8 l-45 3 2 -51 c1 -51 2 -51 5 -8 4 38
7 43 26 40 17 -2 23 -12 28 -43 l6 -40 2 43 c1 35 4 42 21 42 17 0 20 -7 20
-41 0 -24 4 -38 10 -34 18 11 11 71 -10 90 -11 10 -20 13 -20 7z"/>
<path d="M4710 475 c-10 -13 -8 -15 12 -15 18 0 24 -5 24 -22 0 -22 -12 -38
-30 -38 -4 0 -6 9 -3 20 6 24 -11 27 -20 4 -8 -22 18 -45 45 -38 18 5 22 13
22 45 0 45 -29 70 -50 44z"/>
<path d="M4876 481 c-4 -6 -13 -8 -21 -4 -12 4 -15 -5 -15 -46 0 -28 5 -51 10
-51 6 0 10 18 10 40 0 33 3 40 19 40 16 0 21 -8 24 -42 l4 -43 1 46 c2 46 -18
83 -32 60z"/>
<path d="M4101 449 c-1 -45 21 -78 41 -61 8 6 18 9 21 5 4 -3 6 16 5 43 -1 42
-2 44 -5 12 -7 -62 -46 -57 -56 7 -4 29 -4 28 -6 -6z"/>
<path d="M4790 430 c0 -27 5 -50 10 -50 6 0 10 23 10 50 0 28 -4 50 -10 50 -5
0 -10 -22 -10 -50z"/>
<path d="M3040 385 c-7 -9 -11 -18 -8 -20 3 -3 11 1 18 10 7 9 11 18 8 20 -3
3 -11 -1 -18 -10z"/>
<path d="M2924 304 c-19 -15 -19 -15 1 -6 11 5 27 12 35 15 13 5 13 6 -1 6 -8
1 -24 -6 -35 -15z"/>
<path d="M2850 242 c0 -5 -16 -17 -35 -27 -19 -11 -33 -21 -31 -23 2 -2 17 3
33 12 34 17 62 46 44 46 -6 0 -11 -4 -11 -8z"/>
<path d="M2670 164 c-14 -8 -18 -14 -10 -13 8 0 26 6 40 14 14 8 18 14 10 14
-8 -1 -26 -7 -40 -15z"/>
</g>
</svg>
